<svg width="60" height="23" viewBox="0 0 60 23" fill="none" xmlns="http://www.w3.org/2000/svg">
<path d="M0.296875 7.20508V4.48047C1.25391 4.48047 2.03516 4.41699 2.64062 4.29004C3.24609 4.15332 3.71484 3.95312 4.04688 3.68945C4.38867 3.41602 4.61816 3.05957 4.73535 2.62012C4.8623 2.18066 4.92578 1.63867 4.92578 0.994141H8.19238V22H4.61816V7.20508H0.296875ZM11.708 15.0127V7.99609C11.708 7.01953 11.8838 6.08691 12.2354 5.19824C12.5869 4.2998 13.0801 3.51367 13.7148 2.83984C14.3594 2.15625 15.1309 1.61914 16.0293 1.22852C16.9277 0.837891 17.9385 0.642578 19.0615 0.642578C20.1846 0.642578 21.2002 0.837891 22.1084 1.22852C23.0166 1.61914 23.793 2.15625 24.4375 2.83984C25.0918 3.51367 25.5947 4.29492 25.9463 5.18359C26.2979 6.07227 26.4736 7.00977 26.4736 7.99609V15.0127C26.4736 16.0088 26.2979 16.9463 25.9463 17.8252C25.5947 18.7041 25.0918 19.4854 24.4375 20.1689C23.793 20.8525 23.0166 21.3896 22.1084 21.7803C21.2002 22.1709 20.1846 22.3662 19.0615 22.3662C17.9385 22.3662 16.9277 22.1709 16.0293 21.7803C15.1309 21.3896 14.3594 20.8525 13.7148 20.1689C13.0801 19.4854 12.5869 18.7041 12.2354 17.8252C11.8838 16.9463 11.708 16.0088 11.708 15.0127ZM15.165 15.0127C15.165 15.5889 15.2529 16.1357 15.4287 16.6533C15.6045 17.1611 15.8633 17.6104 16.2051 18.001C16.5469 18.3916 16.957 18.7041 17.4355 18.9385C17.9141 19.1631 18.4561 19.2754 19.0615 19.2754C19.6572 19.2754 20.1992 19.1631 20.6875 18.9385C21.1855 18.7041 21.6006 18.3916 21.9326 18.001C22.2744 17.6104 22.5381 17.1611 22.7236 16.6533C22.9189 16.1357 23.0166 15.5889 23.0166 15.0127V7.99609C23.0166 7.41992 22.9189 6.87793 22.7236 6.37012C22.5381 5.85254 22.2744 5.39844 21.9326 5.00781C21.6006 4.61719 21.1855 4.30957 20.6875 4.08496C20.1992 3.85059 19.6572 3.7334 19.0615 3.7334C18.4658 3.7334 17.9238 3.85059 17.4355 4.08496C16.957 4.30957 16.5469 4.61719 16.2051 5.00781C15.8633 5.39844 15.6045 5.84766 15.4287 6.35547C15.2529 6.86328 15.165 7.41016 15.165 7.99609V15.0127ZM29.1104 15.0127V7.99609C29.1104 7.01953 29.2861 6.08691 29.6377 5.19824C29.9893 4.2998 30.4824 3.51367 31.1172 2.83984C31.7617 2.15625 32.5332 1.61914 33.4316 1.22852C34.3301 0.837891 35.3408 0.642578 36.4639 0.642578C37.5869 0.642578 38.6025 0.837891 39.5107 1.22852C40.4189 1.61914 41.1953 2.15625 41.8398 2.83984C42.4941 3.51367 42.9971 4.29492 43.3486 5.18359C43.7002 6.07227 43.876 7.00977 43.876 7.99609V15.0127C43.876 16.0088 43.7002 16.9463 43.3486 17.8252C42.9971 18.7041 42.4941 19.4854 41.8398 20.1689C41.1953 20.8525 40.4189 21.3896 39.5107 21.7803C38.6025 22.1709 37.5869 22.3662 36.4639 22.3662C35.3408 22.3662 34.3301 22.1709 33.4316 21.7803C32.5332 21.3896 31.7617 20.8525 31.1172 20.1689C30.4824 19.4854 29.9893 18.7041 29.6377 17.8252C29.2861 16.9463 29.1104 16.0088 29.1104 15.0127ZM32.5674 15.0127C32.5674 15.5889 32.6553 16.1357 32.8311 16.6533C33.0068 17.1611 33.2656 17.6104 33.6074 18.001C33.9492 18.3916 34.3594 18.7041 34.8379 18.9385C35.3164 19.1631 35.8584 19.2754 36.4639 19.2754C37.0596 19.2754 37.6016 19.1631 38.0898 18.9385C38.5879 18.7041 39.0029 18.3916 39.335 18.001C39.6768 17.6104 39.9404 17.1611 40.126 16.6533C40.3213 16.1357 40.4189 15.5889 40.4189 15.0127V7.99609C40.4189 7.41992 40.3213 6.87793 40.126 6.37012C39.9404 5.85254 39.6768 5.39844 39.335 5.00781C39.0029 4.61719 38.5879 4.30957 38.0898 4.08496C37.6016 3.85059 37.0596 3.7334 36.4639 3.7334C35.8682 3.7334 35.3262 3.85059 34.8379 4.08496C34.3594 4.30957 33.9492 4.61719 33.6074 5.00781C33.2656 5.39844 33.0068 5.84766 32.8311 6.35547C32.6553 6.86328 32.5674 7.41016 32.5674 7.99609V15.0127ZM47.8311 14.9248V12.0098H52.2402V7.39551H55.5215V12.0098H59.96V14.9248H55.5215V19.5098H52.2402V14.9248H47.8311Z" fill="#FF6600"/>
</svg>
