<svg width="59" height="92" viewBox="0 0 59 92" fill="none" xmlns="http://www.w3.org/2000/svg">
<path d="M49.4582 9.59014L23.7475 0L20.5328 8.62155L19.6318 24.1335L5.44218 18.839L0 33.4188L6.71039 35.923L4.73369 41.2185C4.28529 42.418 4.33315 43.7237 4.8679 44.8941C5.40265 46.0645 6.35875 46.9551 7.55725 47.4024L8.83379 47.8789C9.37166 48.0797 9.9345 48.1817 10.5057 48.1817C12.5073 48.1817 14.3207 46.9249 15.0188 45.0553L16.9934 39.7619L21.5981 41.4806L19.6235 46.774C19.1761 47.9736 19.224 49.2782 19.7577 50.4486C20.2924 51.6201 21.2475 52.5106 22.446 52.957L23.7246 53.4345C24.2625 53.6353 24.8253 53.7372 25.3965 53.7372C27.3961 53.7372 29.2095 52.4805 29.9075 50.6109L31.8832 45.3186L36.3433 46.9832C36.3943 47.1018 36.4546 47.2162 36.5097 47.3327C36.5753 47.4732 36.6439 47.6136 36.7157 47.7509C36.8406 47.9923 36.9758 48.2264 37.1173 48.4563C37.2005 48.5916 37.2817 48.7279 37.3712 48.86C37.5283 49.093 37.6989 49.3157 37.8726 49.5362C37.96 49.6465 38.0401 49.762 38.1327 49.8691C38.4032 50.1875 38.6883 50.4954 38.9973 50.7867C39.3031 51.0708 39.6256 51.334 39.9575 51.5816C39.9919 51.6076 40.0241 51.6367 40.0584 51.6627C40.1396 51.722 40.228 51.7689 40.3112 51.8261C40.5422 51.9863 40.7763 52.1413 41.0177 52.2828C41.077 52.3182 41.1321 52.3587 41.1914 52.3931C41.2726 52.4389 41.3568 52.4732 41.438 52.5169C41.6825 52.6469 41.9311 52.7676 42.1829 52.8789C42.2723 52.9195 42.3629 52.958 42.4534 52.9965C42.4763 53.0059 42.4981 53.0173 42.521 53.0256C42.5408 53.0339 42.5605 53.0444 42.5813 53.0516C42.6448 53.0766 42.7051 53.1089 42.7686 53.1328C42.9299 54.0722 43.0121 55.0616 43.0121 56.0864C43.0121 65.8409 35.2894 73.8258 25.6368 74.2492L23.1191 70.6183H26.4566V63.3149H2.50209V70.6183H6.94344L19.3447 84.0869H9.6047V92H46.9467V84.089H42.6573C52.0591 78.0642 58.0496 67.5034 58.0496 56.0885C58.0496 53.138 57.6542 50.2437 56.9031 47.4638C57.6407 45.9261 58.0496 44.2459 58.0496 42.5501C58.0496 36.3194 52.9798 31.2496 46.7491 31.2496C46.5493 31.2496 46.3485 31.2527 46.2476 31.2663C46.2466 31.2663 46.2455 31.2663 46.2445 31.2663C45.8356 31.284 45.4351 31.3297 45.0387 31.3901C44.9326 31.4057 44.8275 31.4254 44.7224 31.4442C44.3729 31.5076 44.0264 31.5836 43.6862 31.6793C43.6415 31.6918 43.5957 31.7011 43.551 31.7147C42.9371 31.8936 42.3452 32.1225 41.7782 32.3982L36.7636 30.5266L46.2434 18.2138L49.4582 9.59014ZM12.0964 43.964C11.7832 44.8036 10.7824 45.2749 9.92722 44.9544L8.64964 44.4779C8.23037 44.3219 7.89538 44.0087 7.70707 43.5967C7.51876 43.1848 7.50107 42.7291 7.65817 42.3098L9.63279 37.0185L14.0689 38.6727L12.0964 43.964ZM26.9851 49.5185C26.672 50.3592 25.668 50.8294 24.818 50.51L23.5384 50.0325C23.1202 49.8775 22.7862 49.5643 22.5989 49.1534C22.4106 48.7414 22.3929 48.2836 22.549 47.8643L24.5226 42.5741L28.9598 44.2293L26.9851 49.5185ZM5.62321 67.4993V66.4381H23.3366V67.4993H20.9551L20.9063 67.4285L10.0937 67.4993H5.62321ZM43.8246 87.2101V88.8789H12.7248V87.2101H43.8246ZM35.8626 84.089H23.5873L11.185 70.6204H19.3207L24.0159 77.3901H24.8326C36.5784 77.3901 46.1332 67.8343 46.1332 56.0885C46.1332 55.3092 46.0915 54.5456 46.0104 53.8007C46.2559 53.8163 46.5015 53.8506 46.747 53.8506C47.2027 53.8506 47.6531 53.8132 48.0984 53.7591C48.2233 53.7445 48.345 53.7248 48.4678 53.706C48.8256 53.6509 49.1794 53.5781 49.5279 53.4896C49.6184 53.4667 49.711 53.448 49.8015 53.423C50.227 53.3034 50.6432 53.1588 51.05 52.9903C51.1394 52.9528 51.2247 52.9101 51.3132 52.8706C51.643 52.7239 51.9655 52.5627 52.2797 52.3858C52.3775 52.3307 52.4753 52.2776 52.572 52.2193C52.9559 51.9884 53.3294 51.7408 53.6842 51.4651C53.6873 51.4619 53.6915 51.4588 53.6956 51.4557C53.9609 51.2487 54.2189 51.0323 54.4665 50.8013C54.7724 52.5294 54.9264 54.298 54.9264 56.0885C54.9274 68.3794 47.2745 79.5925 35.8626 84.089ZM38.9681 40.0356C39.043 39.8025 39.1273 39.5736 39.223 39.35C39.2365 39.3187 39.249 39.2875 39.2626 39.2563V39.2553C39.2698 39.2397 39.2802 39.2261 39.2865 39.2105C39.3115 39.1544 39.3479 39.1055 39.3739 39.0493C39.5362 38.7101 39.7089 38.3772 39.9138 38.0651C40.0335 37.883 40.177 37.7176 40.3123 37.5449C40.4496 37.3649 40.5838 37.1839 40.7368 37.0174C40.9209 36.8187 41.1248 36.6387 41.3287 36.4577C41.3953 36.3984 41.4629 36.3412 41.5295 36.2819C41.5899 36.2288 41.6471 36.1737 41.7105 36.1248C41.9519 35.9365 42.2099 35.768 42.4752 35.6067C42.6063 35.5266 42.7343 35.4423 42.8695 35.3695C43.0308 35.28 43.1952 35.1978 43.3637 35.1198C43.7195 34.9554 44.0847 34.8087 44.4686 34.6985C44.4727 34.6974 44.4769 34.6964 44.4811 34.6953C44.7713 34.6121 45.072 34.5476 45.3779 34.4966C45.4164 34.4904 45.4538 34.4821 45.4923 34.4769C45.8106 34.428 46.1363 34.3926 46.4702 34.3791C46.5285 34.3728 46.5857 34.3718 46.644 34.3718C46.6773 34.3718 46.7116 34.3718 46.7459 34.3718C51.2559 34.3718 54.9253 38.0412 54.9253 42.5512C54.9253 43.939 54.5664 45.3238 53.8923 46.541C52.4378 49.1242 49.6996 50.7295 46.7459 50.7295C46.0052 50.7295 45.2603 50.6286 44.5341 50.4299C43.8932 50.2499 43.2846 49.995 42.7176 49.6746C42.4752 49.5362 42.2411 49.3812 42.0112 49.2189C41.9758 49.1939 41.9363 49.1742 41.902 49.1482C41.7376 49.0285 41.5857 48.8902 41.4296 48.758C41.104 48.4802 40.794 48.1848 40.5162 47.8591C40.4351 47.7645 40.3643 47.6636 40.2884 47.5668C40.1802 47.4274 40.072 47.288 39.9721 47.1413C39.893 47.0258 39.8223 46.9062 39.7505 46.7876C39.6652 46.6471 39.5819 46.5046 39.506 46.3579C39.4405 46.2341 39.3801 46.1092 39.3219 45.9834C39.2501 45.8273 39.1845 45.6671 39.1221 45.5058C39.0784 45.3945 39.0347 45.2821 38.9962 45.1687C38.8693 44.7807 38.7705 44.3895 38.7008 43.9952C38.6893 43.9317 38.681 43.8672 38.6716 43.8027C38.6092 43.3918 38.5665 42.9756 38.5665 42.5501C38.5665 42.3337 38.5801 42.1142 38.5988 41.8926C38.6165 41.6939 38.6415 41.4952 38.6716 41.2965C38.6872 41.1914 38.6955 41.0863 38.7153 40.9813C38.7705 40.7045 38.8402 40.434 38.9213 40.1677C38.9369 40.124 38.9536 40.0803 38.9681 40.0356ZM38.7216 34.5819C38.6206 34.6839 38.5333 34.7983 38.4375 34.9034C38.3803 34.9648 38.3221 35.0251 38.2669 35.0876C38.2409 35.1167 38.2191 35.15 38.1941 35.1791C38.037 35.3632 37.8841 35.5505 37.7395 35.7451C37.6958 35.8012 37.6479 35.8533 37.6063 35.9115C37.5657 35.9677 37.5293 36.0249 37.4898 36.0821C37.4034 36.207 37.3139 36.3308 37.2318 36.4598C37.2099 36.4952 37.186 36.5295 37.1641 36.5649C37.0726 36.7126 36.9873 36.8645 36.903 37.0164C36.8926 37.0351 36.8811 37.0539 36.8707 37.0726C36.8551 37.0996 36.8385 37.1256 36.8239 37.1537C36.7906 37.2162 36.7573 37.2775 36.7251 37.34C36.6294 37.5251 36.5368 37.7124 36.4504 37.9038C36.4317 37.9465 36.4109 37.9881 36.3922 38.0308C36.3745 38.0713 36.361 38.1129 36.3433 38.1535C36.3422 38.1566 36.3412 38.1587 36.3402 38.1618C36.2663 38.3387 36.1924 38.5166 36.1269 38.6987C36.0832 38.8173 36.0468 38.939 36.0072 39.0597C35.9833 39.1325 35.9583 39.2043 35.9354 39.2771C35.9094 39.3624 35.8824 39.4457 35.8585 39.531C35.7784 39.816 35.7086 40.1063 35.6504 40.3997C35.5151 41.1227 35.4465 41.8468 35.4465 42.5533C35.4465 42.8123 35.4558 43.0714 35.4725 43.3304L4.01583 31.5867L7.27635 22.8538L38.7216 34.5819ZM33.7059 29.379L22.6926 25.2696L23.5134 11.1476L42.3358 18.1701L33.7059 29.379ZM43.9442 15.4391L24.0846 8.02958L25.5817 4.01479L45.4424 11.4233L43.9442 15.4391Z" fill="white"/>
</svg>
