<svg xmlns="http://www.w3.org/2000/svg" width="56" height="39" fill="#f5a017"><path d="M40.395 32.397c-2.683-2.632-2.885-5.77-.557-8.05 2.025-2.025 5.366-1.923 7.34.152 2.126 2.227 1.873 5.416-.76 7.846 2.936 1.265 4.86 3.24 5.214 6.63H4.556c.304-3.34 2.227-5.366 5.264-6.63-1.52-1.164-2.278-2.683-2.227-4.556.05-1.468.7-2.683 1.772-3.645 1.974-1.822 5.264-1.62 7.188.405 2.075 2.177 1.822 5.214-.7 7.796.8.506 1.72.962 2.43 1.57s1.316 1.367 2.025 2.126c.962-1.67 2.43-2.835 4.404-3.645-1.67-1.367-2.43-3.088-2.126-5.163.203-1.316.86-2.38 1.924-3.24 2.227-1.72 5.366-1.417 7.188.76 1.52 1.772 1.974 5.062-1.012 7.593 2.177.86 3.797 2.227 4.8 4.556 1.114-2.227 2.733-3.645 4.9-4.505zm4.2-12.453H10.53V.253h34.067v19.7zM13.1 2.835v14.477h28.853V2.835H13.1zM46.216 0h8.808v12.554h-4.1c-.304 0-.607-.304-.9-.506L46.52 9.72c-.203-.152-.456-.506-.456-.76V.253c.05-.1.1-.152.152-.253zm3.34 1.367H47.43V7.4c0 1.367.658 2.126 2.126 2.48V1.367zM8.858 0v8.96a.84.84 0 0 1-.405.658l-4 2.683c-.202.1-.405.203-.658.203H0V0h8.858zM5.416 10.023c.405-.253.658-.506 1.012-.658C7.4 8.96 7.644 8.25 7.593 7.24c-.1-1.164 0-2.38 0-3.594v-2.33H5.467l-.05 8.707z"/></svg>