<svg width="16" height="17" viewBox="0 0 16 17" fill="none" xmlns="http://www.w3.org/2000/svg">
<path fill-rule="evenodd" clip-rule="evenodd" d="M8 16.0789C12.4183 16.0789 16 12.4795 16 8.03943C16 3.59938 12.4183 0 8 0C3.58172 0 0 3.59938 0 8.03943C0 12.4795 3.58172 16.0789 8 16.0789Z" fill="#68686C"/>
<path fill-rule="evenodd" clip-rule="evenodd" d="M8.00008 13.3987C10.9456 13.3987 13.3334 10.9991 13.3334 8.03906C13.3334 5.07903 10.9456 2.67944 8.00008 2.67944C7.4544 2.67944 8.85746 7.17746 8.00008 8.03906C6.66675 9.37897 2.66675 6.61523 2.66675 8.03906C2.66675 10.9991 5.05456 13.3987 8.00008 13.3987Z" fill="#F7F8F9"/>
</svg>
