<svg xmlns="http://www.w3.org/2000/svg" width="45" height="28" fill="none"><path d="M0 23.728v-3.19l1.012-5.366c1.063-4.353 2.53-8.605 5.366-12.2 3.24-4.15 7.44-3.594 10.782-.557.304.304.86.506 1.265.557l7.846.05c.607 0 1.012-.202 1.468-.607C29.663.645 31.94-.418 34.624.29c1.923.506 3.24 1.873 4.353 3.442 2.126 3.037 3.493 6.43 4.404 9.92.608 2.278.962 4.606 1.417 6.884v3.19c-.152.658-.253 1.265-.506 1.923-.608 1.772-1.822 2.43-3.645 1.873-.658-.202-1.266-.557-1.873-.91-2.43-1.52-4.303-3.645-6.125-5.82-.304-.354-.86-.71-1.265-.71-6.024-.05-12.098-.05-18.122 0-.405 0-.86.253-1.164.557-1.215 1.265-2.328 2.632-3.594 3.847-1.367 1.316-2.885 2.582-4.81 3.088-1.468.405-2.632-.152-3.19-1.57-.152-.71-.304-1.518-.506-2.278zM10.58 9.2H9.365c-2.075 0-2.126.05-1.974 2.126.05.607.304.86.86.86h2.328v1.215c0 2.177-.202 1.974 2.025 2.025.658 0 .962-.202.962-.91-.05-.76 0-1.52 0-2.278h1.215c2.025 0 1.974 0 1.974-1.974 0-.76-.304-1.012-1.012-.962s-1.417 0-2.177 0V8.087c-.05-2.126.456-1.974-2.126-1.974-.607 0-.86.253-.86.86V9.2zm23.285 1.114c-.05.91.658 1.772 1.57 1.822s1.772-.71 1.772-1.62c.05-.91-.658-1.67-1.52-1.72-.962-.05-1.772.607-1.822 1.52zm-3.594.202c0-.962-.658-1.72-1.62-1.72s-1.72.76-1.72 1.67c0 .86.76 1.67 1.62 1.72.91 0 1.72-.76 1.72-1.67zm1.822 1.72c-.962 0-1.72.76-1.72 1.72 0 .91.71 1.62 1.62 1.67.962 0 1.72-.71 1.772-1.62 0-1.012-.76-1.772-1.67-1.772zm.05-6.935c-.91 0-1.72.76-1.72 1.67s.71 1.67 1.57 1.72a1.71 1.71 0 0 0 1.822-1.62c0-.91-.76-1.772-1.67-1.772z" fill="#f5a017"/></svg>