<svg xmlns="http://www.w3.org/2000/svg" width="56" height="38" fill="#2eaf89"><path d="M41.002.05h1.417c.658.1 1.316.1 1.924.253 3.24.658 5.973 2.227 7.998 4.86 2.582 3.3 3.392 7.036 2.33 11.136-.658 2.683-2.177 4.9-4.303 6.682-2.126 1.72-4.556 2.733-7.3 2.987-1.367.152-2.733.152-4.1-.05s-2.632-.557-3.898-1.164c-1.67-.8-3.088-1.974-4.353-3.3-1.164-1.266-2.177-2.632-3.138-4.1-.05-.05-.05-.1-.1-.152-.05.05-.05.1-.1.152-.9 1.367-1.822 2.683-2.936 3.898-1.468 1.57-3.088 2.885-5.113 3.746-1.417.607-2.835.962-4.353 1.012-.658.05-1.265 0-1.924 0-1.266 0-2.48-.203-3.695-.557-2.38-.7-4.455-1.974-6.125-3.847a12.65 12.65 0 0 1-3.037-5.82c-.05-.304-.152-.658-.202-.962V11.13A13.65 13.65 0 0 1 .46 9.155a13.02 13.02 0 0 1 6.176-7.44C8.25.8 9.972.304 11.794.1c.304-.05.557-.05.86-.1h1.57a14.45 14.45 0 0 1 3.645.607c2.328.7 4.353 1.974 6.125 3.695 1.215 1.215 2.278 2.53 3.3 3.948.05.1.1.152.203.253.05-.05.05-.05.05-.1.354-.456.658-.962 1.012-1.417 1.114-1.468 2.328-2.784 3.796-3.948A14.27 14.27 0 0 1 40.293 0c.304.1.506.05.7.05zM13.77 21.513c.506-.05 1.012-.05 1.52-.1 1.468-.152 2.835-.7 4.05-1.57.962-.7 1.822-1.57 2.582-2.53 1.114-1.367 2.075-2.885 2.987-4.404v-.152c-.8-1.316-1.67-2.582-2.632-3.746-.9-1.114-1.974-2.126-3.24-2.936-2.126-1.316-4.505-1.72-6.986-1.367-2.278.354-4.2 1.417-5.62 3.24-1.873 2.43-2.33 5.113-1.164 7.998 1.063 2.784 3.2 4.404 6.024 5.163.76.304 1.62.354 2.48.405zm27.638-.05a14.16 14.16 0 0 0 2.025-.152c1.974-.354 3.695-1.265 5-2.784 2.227-2.53 2.784-5.416 1.52-8.555-1.012-2.53-2.936-4.1-5.518-4.96-1.164-.354-2.38-.456-3.594-.354-1.367.1-2.683.456-3.898 1.063-1.266.658-2.328 1.57-3.3 2.582-1.265 1.367-2.278 2.885-3.3 4.455-.05.05-.05.1 0 .203.304.506.607 1.012.962 1.52.9 1.417 1.873 2.784 3.037 4 .86.9 1.822 1.67 2.936 2.177 1.265.658 2.632.86 4.1.8zm3.897 12.807v-5.82h1.72v8.9H44.95c-.1 0-.152-.05-.202-.1l-2.632-5.72c0-.05-.05-.05-.05-.1v5.923h-1.72v-8.9h2.126c.1 0 .152.05.203.1l2.632 5.67c-.05 0-.05.05 0 .05zm-28.5 3.088v-8.9h3.3a3.98 3.98 0 0 1 2.126.607c.76.456 1.215 1.215 1.417 2.075.304 1.266.304 2.582-.152 3.797-.405 1.164-1.265 1.873-2.43 2.227-.607.152-1.164.253-1.772.253h-2.278c-.1-.05-.152-.05-.202-.05zm1.923-1.57h1.063c.9-.05 1.57-.607 1.822-1.468.304-.962.253-1.974 0-2.936-.152-.607-.557-1.012-1.164-1.215-.557-.202-1.164-.152-1.772-.152l.05 5.77zm-5-2.632c.405.253.658.7.86 1.114l1.468 2.987c0 .05.05.05.05.1H14.02c-.1 0-.152-.05-.203-.1l-1.215-2.683c-.304-.608-.7-.86-1.417-.8v3.594h-1.87v-8.9h3.3a3.63 3.63 0 0 1 1.468.304 2.11 2.11 0 0 1 1.316 1.924c.05.405 0 .8-.152 1.164a2.07 2.07 0 0 1-1.316 1.215c-.05 0-.1.05-.202.1 0-.05 0 0 0 0zm-2.53-.9h.86c.253 0 .456-.05.7-.152.455-.203.7-.607.7-1.063-.05-.557-.253-.8-.76-.962s-.962-.1-1.468-.1l-.05 2.278zm43.978.596c.05.76-.05 1.52-.304 2.278-.354 1.012-1.012 1.772-2.075 2.177-.962.354-1.974.354-2.936-.05-.9-.354-1.417-1.063-1.772-1.974-.304-.86-.354-1.772-.354-2.683.05-.76.152-1.52.506-2.278.557-1.215 1.52-1.873 2.835-2.025.658-.05 1.266 0 1.873.202.962.354 1.57 1.063 1.873 2.025.304.76.354 1.52.354 2.33zm-1.974.05v-.608c-.05-.506-.1-.962-.304-1.417-.253-.607-.658-.9-1.316-.962-.76-.05-1.265.253-1.57.962-.05.1-.1.253-.152.354-.203.76-.203 1.52-.152 2.278.05.456.1.86.253 1.265.253.658.7 1.012 1.417 1.012.658 0 1.164-.253 1.468-.86.05-.1.1-.253.152-.354.152-.506.203-1.063.203-1.67zM.607 37.357l.456-1.52L3.3 28.55c.05-.1.05-.152.202-.152H5.77c.1 0 .152 0 .152.1l2.683 8.757v.05H6.682c-.1 0-.152-.05-.202-.152l-.405-1.468c-.05-.1-.05-.1-.152-.1H3.2c-.1 0-.152.05-.152.152l-.456 1.468c0 .05-.05.1-.152.1H.7c-.05.05-.05.05-.1.05zm4.96-3.3l-1.063-3.594h-.05L3.4 34.057h2.177zm19.085-5.6h1.873v5.67a3.89 3.89 0 0 0 .05.76c.1.658.506 1.012 1.215 1.063h.658c.456-.05.8-.354.962-.8a3.85 3.85 0 0 0 .152-1.063v-5.62h1.873v5.77c0 .557-.1 1.114-.354 1.62-.405.8-1.063 1.316-1.974 1.52-.86.202-1.67.202-2.53-.05-1.063-.304-1.62-1.012-1.822-2.075-.05-.304-.1-.607-.1-.962v-5.82zm14.123 0v1.52H36.8v5.872h1.974v1.52h-5.872v-1.52h1.974v-5.872h-1.974v-1.52h5.872zM53.202 1.57v.76h-.253V1.063h.304c.05 0 .05.05.1.1.1.253.152.506.253.7l.152-.557c.1-.304.1-.304.456-.253v1.265h-.253v-.7h-.05c-.05.1-.05.202-.1.304s-.05.202-.1.253c0 .1-.05.1-.152.1s-.152-.05-.152-.152a3.35 3.35 0 0 1-.203-.557zM52.2 1.316h-.405v-.253h1.063v.253h-.354v1.012H52.2V1.316zM9.162 13.667v-1.974h9.162v1.974H9.162zM39.737 11.4V8.9h2.582v2.48h2.48v2.582h-2.48v2.48h-2.582v-2.48h-2.48V11.4h2.48z"/></svg>