<?xml version="1.0" encoding="utf-8"?>
<!-- Generator: Adobe Illustrator 22.1.0, SVG Export Plug-In . SVG Version: 6.00 Build 0)  -->
<svg version="1.1" id="Layer_1" xmlns="http://www.w3.org/2000/svg" xmlns:xlink="http://www.w3.org/1999/xlink" x="0px" y="0px"
	 viewBox="0 0 31 30" style="enable-background:new 0 0 31 30;" xml:space="preserve">
<style type="text/css">
	.st0{fill:#E80088;}
</style>
<path class="st0" d="M3.4,2.5c0.8-0.8,1.7-1.3,2.7-1.7c1-0.4,2-0.6,3.6-0.7C11.3,0,11.8,0,15.9,0s4.6,0,6.2,0.1
	c1.6,0.1,2.7,0.3,3.6,0.7c1,0.4,1.8,0.9,2.7,1.7c0.8,0.8,1.3,1.6,1.7,2.6c0.4,0.9,0.6,2,0.7,3.6c0.1,1.6,0.1,2.1,0.1,6.1
	s0,4.5-0.1,6.1c-0.1,1.6-0.3,2.6-0.7,3.6c-0.4,1-0.9,1.8-1.7,2.6c-0.8,0.8-1.7,1.3-2.7,1.7c-1,0.4-2,0.6-3.6,0.7
	c-1.6,0.1-2.1,0.1-6.2,0.1s-4.6,0-6.2-0.1C8.1,29.3,7,29,6.1,28.7c-1-0.4-1.8-0.9-2.7-1.7s-1.3-1.6-1.7-2.6c-0.4-0.9-0.6-2-0.7-3.6
	c-0.1-1.6-0.1-2.1-0.1-6.1s0-4.5,0.1-6.1C1.1,7.1,1.3,6,1.7,5.1C2.1,4.1,2.6,3.3,3.4,2.5z M24.7,3.2C24.2,3,23.4,2.8,22,2.7
	c-1.6-0.1-2.1-0.1-6.1-0.1s-4.5,0-6.1,0.1C8.4,2.8,7.6,3,7,3.2C6.3,3.5,5.8,3.8,5.3,4.3C4.8,4.9,4.5,5.4,4.2,6
	C4,6.6,3.8,7.3,3.7,8.8c-0.1,1.6-0.1,2-0.1,6s0,4.4,0.1,6c0.1,1.4,0.3,2.2,0.5,2.7c0.3,0.7,0.6,1.2,1.1,1.7c0.5,0.5,1,0.8,1.7,1.1
	c0.5,0.2,1.3,0.4,2.8,0.5c1.6,0.1,2.1,0.1,6.1,0.1s4.5,0,6.1-0.1c1.5-0.1,2.3-0.3,2.8-0.5c0.7-0.3,1.2-0.6,1.7-1.1
	c0.5-0.5,0.8-1,1.1-1.7c0.2-0.5,0.5-1.3,0.5-2.7c0.1-1.6,0.1-2,0.1-6s0-4.4-0.1-6C28,7.3,27.8,6.6,27.6,6c-0.3-0.7-0.6-1.2-1.1-1.7
	C25.9,3.8,25.4,3.5,24.7,3.2z"/>
<path class="st0" d="M15.9,22.3c-4.2,0-7.7-3.4-7.7-7.6s3.4-7.6,7.7-7.6s7.7,3.4,7.7,7.6C23.6,18.9,20.1,22.3,15.9,22.3z M15.9,19.6
	c2.8,0,5-2.2,5-4.9c0-2.7-2.2-4.9-5-4.9c-2.8,0-5,2.2-5,4.9C10.9,17.4,13.1,19.6,15.9,19.6z"/>
<path class="st0" d="M23.9,8.6c1,0,1.8-0.8,1.8-1.8c0-1-0.8-1.8-1.8-1.8c-1,0-1.8,0.8-1.8,1.8C22.1,7.8,22.9,8.6,23.9,8.6z"/>
</svg>
