<?xml version="1.0" encoding="utf-8"?>
<!-- Generator: Adobe Illustrator 22.1.0, SVG Export Plug-In . SVG Version: 6.00 Build 0)  -->
<svg version="1.1" id="Layer_1" xmlns="http://www.w3.org/2000/svg" xmlns:xlink="http://www.w3.org/1999/xlink" x="0px" y="0px"
	 viewBox="0 0 37 30" style="enable-background:new 0 0 37 30;" xml:space="preserve">
<style type="text/css">
	.st0{fill:#55ACEE;}
</style>
<path class="st0" d="M11.7,29.4C25.5,29.4,33,18.1,33,8.3c0-0.3,0-0.6,0-1c1.5-1,2.7-2.3,3.7-3.8c-1.4,0.6-2.8,1-4.3,1.2
	c1.6-0.9,2.7-2.4,3.3-4.1c-1.5,0.8-3.1,1.4-4.8,1.7c-2.3-2.5-6-3.1-9.1-1.5c-3,1.6-4.5,5-3.7,8.3C12.2,8.9,6.5,6,2.8,1.4
	c-2,3.4-1,7.7,2.3,9.9c-1.2,0-2.4-0.3-3.4-0.9v0.1c0,3.5,2.5,6.6,6,7.3C6.6,18,5.4,18,4.3,17.8c1,3,3.8,5.1,7,5.1
	C8.6,25,5.4,26.1,2,26.1c-0.6,0-1.2,0-1.8-0.1C3.6,28.2,7.6,29.4,11.7,29.4z"/>
</svg>
