<svg xmlns="http://www.w3.org/2000/svg" width="45" height="45" fill="#eb671b"><path d="M.093 39.433V11.54c.05-.202.05-.354.1-.557C.498 9.365 1.358 8.2 2.776 7.4c.8-.405 1.62-.607 2.53-.557h5.113c.1 0 .152 0 .203-.152.202-.9.456-1.822.9-2.683.607-1.215 1.52-2.177 2.683-2.885C15.38.456 16.646.152 17.962.05c.253 0 .456-.05.7-.05h1.52a20.56 20.56 0 0 1 3.543.456 21.4 21.4 0 0 1 5.214 1.873l4.606 2.43 3.24 1.57a6.41 6.41 0 0 0 2.379.456c.304 0 .658 0 .962.05 1.367.253 2.43.9 3.24 2.025.658.9.962 1.974.962 3.138v26.83c0 .304 0 .607-.05.9-.152 1.114-.607 2.126-1.367 2.936-1.012 1.012-2.278 1.52-3.695 1.52H5.408c-.354 0-.76-.05-1.114-.1-2.074-.46-3.39-1.724-3.898-3.75-.253-.354-.253-.658-.304-.9zm40.75-7.188v-20.35c0-.456-.152-.9-.506-1.265s-.8-.456-1.266-.456h-23.7v3.594c-.05.658-.455 1.215-1.063 1.367-.202.05-.405.1-.607.1v1.67H10.31v-1.52c0-.253 0-.202-.202-.202-.658-.05-1.114-.354-1.367-.962a2.03 2.03 0 0 1-.152-.759v-3.34H5.003c-.354 0-.7.152-.962.405-.405.354-.506.8-.506 1.367v25.36H27.68c.607 0 1.215-.152 1.72-.607l1.468-1.417 2.227-2.278c.354-.354.8-.658 1.367-.7.354-.05.7-.05 1.063-.05h5.214c-.05.05 0 .05.1.05zM14.013 6.783H30c-.1-.05-.152-.1-.203-.1-.253-.152-.506-.304-.8-.405-1.316-.7-2.632-1.367-4.05-1.822-1.72-.607-3.493-.962-5.315-1.012-.8 0-1.67 0-2.48.202-1.265.253-2.278.9-2.784 2.126l-.354 1.012zm-2.075 17.87v-4.1c0-.304 0-.557.1-.86.152-.455.506-.76.962-.962L17.303 17l4.252-1.72c.405-.152.86-.152 1.265.05l6.53 2.734 1.772.76c.76.304 1.164.86 1.164 1.72v8.403a1.69 1.69 0 0 1-.91 1.57l-6.43 3.746-1.924 1.114c-.354.203-.76.253-1.164.203a2.16 2.16 0 0 1-.607-.253l-2.177-1.266-6.226-3.645c-.557-.354-.86-.86-.86-1.52l-.05-4.252zm8.504 6.327v-5.62c0-.1 0-.1-.1-.152L16.1 23.334c-.253-.1-.506-.203-.76-.354v4.96c0 .1.05.152.1.152l4.353 2.48c.203.152.405.304.658.405zm-2.38-10.48c.05.05.1.05.152.05l3.847 1.67c.1.05.203.05.304 0l3.493-1.468c.1-.05.253-.1.405-.152-.05-.05-.1-.05-.1-.05l-3.796-1.62c-.1-.05-.203-.05-.304 0l-2.784 1.114-1.215.456z"/></svg>