<svg width="10" height="10" viewBox="0 0 10 10" fill="none" xmlns="http://www.w3.org/2000/svg">
<path d="M9.76143 3.46214C9.09429 1.39143 7.18143 0 5 0C4.20143 0 3.40357 0.193571 2.69143 0.562143C1.03143 1.43214 0 3.13214 0 5C0 7.75643 2.24286 10 5 10C7.75643 10 10 7.75643 10 5C10 4.47929 9.92 3.96214 9.76143 3.46214ZM5 9.28571C2.63643 9.28571 0.714286 7.36357 0.714286 5C1.9 5 2.85714 4.04286 2.85714 2.85714V1.42857C2.85714 3.00643 4.13643 4.28571 5.71429 4.28571H9.22357C9.26286 4.52214 9.28571 4.76 9.28571 5C9.28571 7.36357 7.36357 9.28571 5 9.28571Z" fill="#FFA300"/>
<path d="M2.85686 6.42857C3.25135 6.42857 3.57115 6.10877 3.57115 5.71429C3.57115 5.3198 3.25135 5 2.85686 5C2.46237 5 2.14258 5.3198 2.14258 5.71429C2.14258 6.10877 2.46237 6.42857 2.85686 6.42857Z" fill="#FFA300"/>
<path d="M7.143 6.42857C7.53749 6.42857 7.85728 6.10877 7.85728 5.71429C7.85728 5.3198 7.53749 5 7.143 5C6.74851 5 6.42871 5.3198 6.42871 5.71429C6.42871 6.10877 6.74851 6.42857 7.143 6.42857Z" fill="#FFA300"/>
</svg>
