<svg xmlns="http://www.w3.org/2000/svg" width="48" height="41" fill="#44bee5"><path d="M47.077 39.03c-1.114 1.62-1.62 1.822-3.594 1.316l-15.5-4.15c-.9 2.227-1.012 2.278-3.442 2.278H2.784C.7 38.472 0 37.763 0 35.738l.05-15.945c0-1.974.76-2.733 2.733-2.733h22.273c1.822 0 2.38.405 2.885 2.33l3.695-.962 11.997-3.24c1.873-.506 2.53-.253 3.493 1.468l-.05 22.374zM23.54 34.17V21.464H4.353V34.17h19.185zm19.236 1.417v-15.54l-14.882 4.05v6.63c0 .7.253.9.9 1.114l8.453 2.278 5.518 1.468zm-21.363-22.78c-3.543 0-6.327-2.835-6.378-6.378 0-3.543 2.784-6.378 6.327-6.43s6.48 2.885 6.48 6.43-2.885 6.378-6.43 6.378zm-.1-4.252a2.2 2.2 0 0 0 2.278-2.075c.05-1.114-.86-2.075-1.974-2.126-1.265-.1-2.278.8-2.33 2.025-.05 1.114.86 2.075 2.025 2.177zM12.858 6.48a6.32 6.32 0 0 1-6.429 6.327A6.42 6.42 0 0 1 .051 6.43 6.41 6.41 0 0 1 6.531.051c3.543 0 6.327 2.885 6.327 6.43zM6.48 8.556A2.14 2.14 0 0 0 8.606 6.43c0-1.215-.962-2.126-2.227-2.126-1.164.05-2.126 1.012-2.075 2.177a2.21 2.21 0 0 0 2.177 2.075z"/></svg>