<svg xmlns="http://www.w3.org/2000/svg" width="55" height="37" fill="#eb671b"><path d="M22.63 31.334c-.304-.05-.607-.1-.9-.203-1.873-.456-3.088-1.72-3.797-3.493-.05-.152-.05-.304-.05-.456V8.808c0-.304-.05-.557-.304-.76s-.354-.456-.354-.8c.05-.456 0-.9 0-1.417h10.833v2.075c-.405.202-.658.506-.658 1.063v18.17c0 .152 0 .354-.05.506-.304.658-.557 1.316-.962 1.924-.506.8-1.266 1.316-2.227 1.57l-.8.152c-.203.05-.456.05-.7.05zM19.085 9.06v18.02a1.45 1.45 0 0 0 .354 1.012c.86 1.164 2.075 1.72 3.493 1.974.1 0 .253 0 .354-.05 1.265-.304 2.126-1.063 2.683-2.227a1.02 1.02 0 0 0 .152-.557V9.06h-7.036zm1.012 22.274H3.646c-1.974 0-3.695-1.772-3.645-3.746 0-.8.202-1.52.607-2.278l6.884-12.908a1.56 1.56 0 0 0 .152-.658V3.948H6.38V.8h10.175v3.138H15.34v7.846c0 .203.05.405.152.607l1.62 3.2a1.35 1.35 0 0 1 .152.607l-.05 2.986c-.05-.05-.1-.152-.1-.202l-2.936-6.176c-.05-.152-.1-.354-.1-.506V4.05H8.96v8.2c0 .253-.05.456-.152.7L1.925 26.83c-.607 1.164-.304 2.582 1.67 2.683H17.97c.203 0 .405.1.557.203l1.72 1.57c-.152-.05-.152 0-.152.05zm-2.934-3.2H5.52c-1.265 0-2.227-1.417-1.72-2.53l1.924-3.898 1.164-2.278c.1-.202.202-.253.405-.253h7.24c.202 0 .304.05.405.253l2.126 4.05a.96.96 0 0 1 .1.405v4.05c.05.05.05.1 0 .203zm8.35-6.985v5.416c0 1.265-1.164 2.632-2.328 2.784a1.29 1.29 0 0 1-.76-.1c-1.063-.405-1.923-1.114-2.53-2.126-.1-.152-.152-.405-.152-.608V15.692c0-.304.1-.405.405-.405h5c.304 0 .354.1.354.354v5.517zm29.26 5.366a.94.94 0 0 0-.1.354 2.55 2.55 0 0 1-2.48 1.822h-23.5v-5.163H52.14V2.632H18.225c0-.7.203-1.265.607-1.72.456-.506 1.063-.76 1.72-.9h31.84c.203.05.405.1.608.202.962.354 1.468 1.114 1.72 2.075l.05 24.247zm-19.54-.456c0 .76.557 1.316 1.316 1.316.7 0 1.316-.557 1.316-1.265a1.34 1.34 0 0 0-1.316-1.316c-.7 0-1.316.608-1.316 1.265zM30.02 36.497c-.05-1.316.76-2.126 2.582-2.632v-2.53h7.795v2.53c1.924.557 2.582 1.215 2.582 2.632H30.02z"/></svg>