<svg xmlns="http://www.w3.org/2000/svg" width="50" height="37" fill="#2eaf89"><path d="M18.754 3.368c0-1.822 1.114-3.138 2.632-3.34 1.772-.202 3.14.76 3.493 2.48l3.24 16.148L30.8 32.17c.152.7.152 1.468 0 2.126-.304 1.316-1.57 2.177-2.784 2.126-1.57-.05-2.885-1.063-3.2-2.48L18.855 4.28c-.05-.304-.1-.7-.1-.9zM7.466 18.2l7.24 7.44c.506.557 1.012 1.265 1.215 1.974.354 1.265-.304 2.48-1.468 3.088s-2.733.405-3.746-.557L1.14 20.578c-1.52-1.57-1.52-3.138 0-4.657l9.668-9.517c1.468-1.417 3.24-1.468 4.505-.152s1.164 2.987-.253 4.404L7.466 18.2zm35.18.202l-7.745-7.745c-.506-.506-.962-1.215-1.114-1.924-.304-1.266.405-2.53 1.57-3.138s2.48-.405 3.493.557l6.63 6.58 3.24 3.24c1.367 1.417 1.367 3.037 0 4.455l-9.668 9.668c-1.215 1.215-3.34 1.215-4.454.1-1.215-1.215-1.164-2.987.152-4.353l6.783-6.732c.253-.304.658-.456 1.114-.7z"/></svg>