<svg width="40" height="40" viewBox="0 0 40 40" fill="none" xmlns="http://www.w3.org/2000/svg">
<rect x="0.375" y="0.375" width="39.25" height="39.25" rx="2.625" fill="#F3F4F5" stroke="#DBDAE3" stroke-width="0.75"/>
<path fill-rule="evenodd" clip-rule="evenodd" d="M10.8801 10.8471C11.5038 10.2344 12.1274 9.8587 12.8649 9.57695C13.5751 9.30412 14.3899 9.11629 15.5872 9.06709C16.7799 9.01341 17.1623 9 20.2033 9C23.2442 9 23.6266 9.01341 24.8193 9.06709C26.012 9.12076 26.8269 9.30412 27.537 9.57695C28.2745 9.8587 28.8982 10.2344 29.5219 10.8471C30.141 11.4554 30.5234 12.0726 30.8102 12.7926C31.0833 13.4903 31.2745 14.2909 31.3291 15.4627C31.3838 16.6345 31.3974 17.0102 31.3974 19.9978C31.3974 22.9854 31.3838 23.3611 31.3291 24.5328C31.2745 25.7046 31.0879 26.5052 30.8102 27.2029C30.5234 27.9274 30.141 28.5401 29.5173 29.1529C28.8936 29.7656 28.27 30.1413 27.5325 30.423C26.8223 30.6914 26.0075 30.8792 24.8148 30.9329C23.622 30.9866 23.2397 31 20.1987 31C17.1578 31 16.7754 30.9866 15.5827 30.9329C14.3899 30.8792 13.5751 30.6959 12.8649 30.423C12.1274 30.1413 11.5038 29.7656 10.8801 29.1529C10.2564 28.5401 9.87405 27.9274 9.58725 27.2029C9.31411 26.5052 9.12291 25.7046 9.06828 24.5328C9.01366 23.3611 9 22.9854 9 19.9978C9 17.0102 9.01366 16.6345 9.06828 15.4627C9.12291 14.2909 9.30956 13.4903 9.58725 12.7926C9.87405 12.0726 10.2564 11.4554 10.8801 10.8471ZM26.8045 11.4242C26.4084 11.2722 25.8166 11.0933 24.7241 11.0441C23.545 10.9904 23.1899 10.9814 20.1991 10.9814C17.2082 10.9814 16.8531 10.9904 15.6741 11.0441C14.5815 11.0933 13.9897 11.2722 13.5937 11.4242C13.0702 11.6255 12.6969 11.8625 12.3054 12.2471C11.9139 12.6318 11.6726 12.9985 11.4678 13.5128C11.313 13.9019 11.1309 14.4834 11.0808 15.5567C11.0307 16.7151 11.0171 17.0639 11.0171 20.0023C11.0171 22.9407 11.0262 23.2896 11.0808 24.4479C11.1309 25.5213 11.313 26.1027 11.4678 26.4918C11.6726 27.0061 11.9139 27.3729 12.3054 27.7575C12.6969 28.1422 13.0702 28.3792 13.5937 28.5804C13.9897 28.7325 14.5815 28.9114 15.6741 28.9606C16.8531 29.0098 17.2082 29.0232 20.1991 29.0232C23.1899 29.0232 23.545 29.0143 24.7241 28.9606C25.8166 28.9114 26.4084 28.7325 26.8045 28.5804C27.328 28.3792 27.7013 28.1422 28.0928 27.7575C28.4843 27.3729 28.7255 27.0061 28.9304 26.4918C29.0852 26.1027 29.2673 25.5213 29.3173 24.4479C29.3674 23.2896 29.3811 22.9407 29.3811 20.0023C29.3811 17.0639 29.372 16.7151 29.3173 15.5567C29.2673 14.4834 29.0852 13.9019 28.9304 13.5128C28.7255 12.9985 28.4843 12.6318 28.0928 12.2471C27.7013 11.8625 27.328 11.6255 26.8045 11.4242Z" fill="#7F858B"/>
<path fill-rule="evenodd" clip-rule="evenodd" d="M20.1988 25.6509C17.0258 25.6509 14.4492 23.124 14.4492 20.0022C14.4492 16.8804 17.0213 14.3535 20.1988 14.3535C23.3763 14.3535 25.9484 16.8849 25.9484 20.0022C25.9484 23.1195 23.3718 25.6509 20.1988 25.6509ZM20.1982 23.6699C22.2604 23.6699 23.9311 22.0285 23.9311 20.0024C23.9311 17.9764 22.2604 16.335 20.1982 16.335C18.136 16.335 16.4653 17.9764 16.4653 20.0024C16.4653 22.0285 18.136 23.6699 20.1982 23.6699Z" fill="#7F858B"/>
<path d="M26.1808 15.4494C26.9225 15.4494 27.5238 14.8586 27.5238 14.13C27.5238 13.4013 26.9225 12.8105 26.1808 12.8105C25.4391 12.8105 24.8379 13.4013 24.8379 14.13C24.8379 14.8586 25.4391 15.4494 26.1808 15.4494Z" fill="#7F858B"/>
</svg>
