<svg width="10" height="10" viewBox="0 0 10 10" fill="none" xmlns="http://www.w3.org/2000/svg">
<path d="M7.65167 7.23513L5 9.8868L2.34834 7.23513C1.82389 6.71068 1.46674 6.04249 1.32205 5.31507C1.17736 4.58764 1.25163 3.83364 1.53546 3.14842C1.81929 2.4632 2.29993 1.87754 2.91662 1.46548C3.5333 1.05343 4.25832 0.833496 5 0.833496C5.74168 0.833496 6.4667 1.05343 7.08338 1.46548C7.70007 1.87754 8.18072 2.4632 8.46455 3.14842C8.74838 3.83364 8.82264 4.58764 8.67795 5.31507C8.53326 6.04249 8.17611 6.71068 7.65167 7.23513ZM5 5.4168C5.22102 5.4168 5.43298 5.329 5.58926 5.17272C5.74554 5.01644 5.83333 4.80448 5.83333 4.58346C5.83333 4.36245 5.74554 4.15049 5.58926 3.99421C5.43298 3.83793 5.22102 3.75013 5 3.75013C4.77899 3.75013 4.56703 3.83793 4.41075 3.99421C4.25447 4.15049 4.16667 4.36245 4.16667 4.58346C4.16667 4.80448 4.25447 5.01644 4.41075 5.17272C4.56703 5.329 4.77899 5.4168 5 5.4168Z" fill="#FF6600"/>
</svg>
