<?xml version="1.0" encoding="utf-8"?>
<!-- Generator: Adobe Illustrator 22.1.0, SVG Export Plug-In . SVG Version: 6.00 Build 0)  -->
<svg version="1.1" id="Layer_1" xmlns="http://www.w3.org/2000/svg" xmlns:xlink="http://www.w3.org/1999/xlink" x="0px" y="0px"
	 viewBox="0 0 84 93" style="enable-background:new 0 0 84 93;" xml:space="preserve">
<style type="text/css">
	.st0{fill:#FFFFFF;}
</style>
<path class="st0" d="M8.5,23.1h29.4c0.8,0,1.4-0.8,1.4-1.7V8.6c0-0.9-0.6-1.7-1.4-1.7H8.5c-0.8,0-1.4,0.8-1.4,1.7v12.8
	C7.1,22.3,7.8,23.1,8.5,23.1z M10,10.3h26.5v9.4H10V10.3L10,10.3z"/>
<path class="st0" d="M10.5,23.4H7.8c-0.8,0-1.4,0.7-1.4,1.6v3.6c0,0.8,0.6,1.6,1.4,1.6h2.7c0.8,0,1.4-0.7,1.4-1.6v-3.6
	C11.9,24.1,11.3,23.4,10.5,23.4z"/>
<path class="st0" d="M17.5,23.4h-2.7c-0.8,0-1.4,0.7-1.4,1.6v3.6c0,0.8,0.6,1.6,1.4,1.6h2.7c0.8,0,1.4-0.7,1.4-1.6v-3.6
	C19,24.1,18.3,23.4,17.5,23.4z"/>
<path class="st0" d="M24.6,23.4h-2.7c-0.8,0-1.4,0.7-1.4,1.6v3.6c0,0.8,0.6,1.6,1.4,1.6h2.7c0.8,0,1.4-0.7,1.4-1.6v-3.6
	C26,24.1,25.4,23.4,24.6,23.4z"/>
<path class="st0" d="M31.6,23.4h-2.7c-0.8,0-1.4,0.7-1.4,1.6v3.6c0,0.8,0.6,1.6,1.4,1.6h2.7c0.8,0,1.4-0.7,1.4-1.6v-3.6
	C33,24.1,32.4,23.4,31.6,23.4z"/>
<path class="st0" d="M38.7,23.4H36c-0.8,0-1.4,0.7-1.4,1.6v3.6c0,0.8,0.6,1.6,1.4,1.6h2.7c0.8,0,1.4-0.7,1.4-1.6v-3.6
	C40.1,24.1,39.5,23.4,38.7,23.4z"/>
<path class="st0" d="M10.5,32.8H7.8c-0.8,0-1.4,0.7-1.4,1.6V38c0,0.8,0.6,1.6,1.4,1.6h2.7c0.8,0,1.4-0.7,1.4-1.6v-3.6
	C11.9,33.5,11.3,32.8,10.5,32.8z"/>
<path class="st0" d="M17.5,32.8h-2.7c-0.8,0-1.4,0.7-1.4,1.6V38c0,0.8,0.6,1.6,1.4,1.6h2.7c0.8,0,1.4-0.7,1.4-1.6v-3.6
	C19,33.5,18.3,32.8,17.5,32.8z"/>
<path class="st0" d="M24.6,32.8h-2.7c-0.8,0-1.4,0.7-1.4,1.6V38c0,0.8,0.6,1.6,1.4,1.6h2.7c0.8,0,1.4-0.7,1.4-1.6v-3.6
	C26,33.5,25.4,32.8,24.6,32.8z"/>
<path class="st0" d="M31.6,32.8h-2.7c-0.8,0-1.4,0.7-1.4,1.6V38c0,0.8,0.6,1.6,1.4,1.6h2.7c0.8,0,1.4-0.7,1.4-1.6v-3.6
	C33,33.5,32.4,32.8,31.6,32.8z"/>
<path class="st0" d="M38.7,32.8H36c-0.8,0-1.4,0.7-1.4,1.6V38c0,0.8,0.6,1.6,1.4,1.6h2.7c0.8,0,1.4-0.7,1.4-1.6v-3.6
	C40.1,33.5,39.5,32.8,38.7,32.8z"/>
<path class="st0" d="M10.5,42.2H7.8c-0.8,0-1.4,0.7-1.4,1.6v3.6c0,0.8,0.6,1.6,1.4,1.6h2.7c0.8,0,1.4-0.7,1.4-1.6v-3.6
	C11.9,42.9,11.3,42.2,10.5,42.2z"/>
<path class="st0" d="M17.5,42.2h-2.7c-0.8,0-1.4,0.7-1.4,1.6v3.6c0,0.8,0.6,1.6,1.4,1.6h2.7c0.8,0,1.4-0.7,1.4-1.6v-3.6
	C19,42.9,18.3,42.2,17.5,42.2z"/>
<path class="st0" d="M24.6,42.2h-2.7c-0.8,0-1.4,0.7-1.4,1.6v3.6c0,0.8,0.6,1.6,1.4,1.6h2.7c0.8,0,1.4-0.7,1.4-1.6v-3.6
	C26,42.9,25.4,42.2,24.6,42.2z"/>
<path class="st0" d="M31.6,42.2h-2.7c-0.8,0-1.4,0.7-1.4,1.6v3.6c0,0.8,0.6,1.6,1.4,1.6h2.7c0.8,0,1.4-0.7,1.4-1.6v-3.6
	C33,42.9,32.4,42.2,31.6,42.2z"/>
<path class="st0" d="M38.7,42.2H36c-0.8,0-1.4,0.7-1.4,1.6v3.6c0,0.8,0.6,1.6,1.4,1.6h2.7c0.8,0,1.4-0.7,1.4-1.6v-3.6
	C40.1,42.9,39.5,42.2,38.7,42.2z"/>
<path class="st0" d="M10.5,51.7H7.8c-0.8,0-1.4,0.7-1.4,1.6v3.6c0,0.8,0.6,1.6,1.4,1.6h2.7c0.8,0,1.4-0.7,1.4-1.6v-3.6
	C11.9,52.3,11.3,51.7,10.5,51.7z"/>
<path class="st0" d="M17.5,51.7h-2.7c-0.8,0-1.4,0.7-1.4,1.6v3.6c0,0.8,0.6,1.6,1.4,1.6h2.7c0.8,0,1.4-0.7,1.4-1.6v-3.6
	C19,52.3,18.3,51.7,17.5,51.7z"/>
<path class="st0" d="M24.6,51.7h-2.7c-0.8,0-1.4,0.7-1.4,1.6v3.6c0,0.8,0.6,1.6,1.4,1.6h2.7c0.8,0,1.4-0.7,1.4-1.6v-3.6
	C26,52.3,25.4,51.7,24.6,51.7z"/>
<path class="st0" d="M31.6,51.7h-2.7c-0.8,0-1.4,0.7-1.4,1.6v3.6c0,0.8,0.6,1.6,1.4,1.6h2.7c0.8,0,1.4-0.7,1.4-1.6v-3.6
	C33,52.3,32.4,51.7,31.6,51.7z"/>
<path class="st0" d="M38.7,51.7H36c-0.8,0-1.4,0.7-1.4,1.6v4.2c0,0.8,0.6,1.6,1.4,1.6h2.7c0.8,0,1.4-0.7,1.4-1.6v-4.2
	C40.1,52.3,39.5,51.7,38.7,51.7z"/>
<path class="st0" d="M69.7,15.4c-0.5-0.3-1.1-0.1-1.6,0.4L46.3,39.4V1.6c0-0.8-0.6-1.6-1.4-1.6H1.5C0.8,0,0.1,0.7,0.1,1.6v64.5
	c0,0.8,0.6,1.6,1.4,1.6h19.6l-14,15.1c-0.4,0.5-0.5,1.1-0.3,1.7s0.8,1,1.3,1h61.1c0.8,0,1.4-0.7,1.4-1.6V16.8
	C70.6,16.2,70.3,15.6,69.7,15.4z M46.3,66.1v-9.8l13.8-15.1v32.4H30.7l5.3-5.8h9C45.7,67.7,46.3,67,46.3,66.1z M3,64.5V3.1h40.5v40
	l0,0v21.4H3L3,64.5z M67.8,82.4H11.6l13.5-14.7h6.7l-5.7,6.3c-0.4,0.5-0.5,1.1-0.3,1.7c0.2,0.6,0.7,1,1.3,1h34.3
	c0.8,0,1.4-0.7,1.4-1.6V37.4c0-0.6-0.3-1.2-0.9-1.5c-0.5-0.3-1.1-0.1-1.6,0.4l-14,15.5v-8l21.4-23.3L67.8,82.4L67.8,82.4z"/>
<path class="st0" d="M83.7,68.9c0-0.1,0-0.2,0-0.3V10.3c0-0.1,0-0.1,0-0.2c0-0.1,0-0.1,0-0.2V6.6c0-3.7-2.6-6.6-5.8-6.6
	s-5.8,2.9-5.8,6.6v3.3c0,0.1,0,0.1,0,0.2c0,0.1,0,0.1,0,0.2v58.3c0,0.1,0,0.2,0,0.3s0,0.2,0,0.3l4.4,15.4c0.2,0.6,0.7,1.1,1.4,1.1
	s1.2-0.5,1.4-1.1l4.4-15.4C83.7,69,83.7,68.9,83.7,68.9z M77.9,78.7l-2.5-8.6h4.9L77.9,78.7z M80.9,67h-6V11.9h6V67z M80.9,8.7h-6
	V6.6c0-1.9,1.3-3.5,3-3.5c1.6,0,3,1.6,3,3.5V8.7L80.9,8.7z"/>
</svg>
