<svg width="88" height="35" viewBox="0 0 88 35" fill="none" xmlns="http://www.w3.org/2000/svg">
<path d="M5.47059 27H8.89059V6.6H5.77059C5.77059 9.12 4.96059 10.08 1.15059 10.08V12.96H5.47059V27ZM13.5537 27H27.7437V23.91H17.6337C17.9937 22.05 18.6237 21.3 20.8737 20.01L23.8137 18.33C26.3337 16.89 27.8037 14.58 27.8037 12.09C27.8037 8.49 25.2537 6.24 21.1437 6.24C16.7937 6.24 14.0037 9.09 14.0037 13.53H17.5737C17.5737 10.77 18.8637 9.24 21.1437 9.24C22.9137 9.24 24.1437 10.47 24.1437 12.27C24.1437 13.92 23.2737 15.21 21.5937 16.14L18.5937 17.79C15.0537 19.74 13.5537 22.5 13.5537 27ZM38.4561 20.52H47.7261V17.61H38.4561V20.52ZM65.3114 12.66H65.2514L69.9914 6.6H65.8814L59.4614 15.27C58.4714 16.56 57.9314 18.21 57.9314 20.01C57.9314 24.12 60.6914 27.36 65.3114 27.36C69.9314 27.36 72.6914 24.12 72.6914 20.01C72.6914 15.9 69.9314 12.66 65.3114 12.66ZM65.3114 24.45C62.6714 24.45 61.2014 22.56 61.2014 20.01C61.2014 17.46 62.6714 15.57 65.3114 15.57C67.9514 15.57 69.4214 17.46 69.4214 20.01C69.4214 22.56 67.9514 24.45 65.3114 24.45Z" fill="#00BB8D"/>
<path d="M31.8719 10H32.9619V7.44C32.9619 6.62 33.3619 6.15 34.0719 6.15C34.8319 6.15 35.0919 6.58 35.0919 7.57V10H36.1819V7.07C36.1819 5.85 35.6019 5.22 34.4819 5.22C33.7919 5.22 33.2519 5.49 32.9619 5.99V5.34H31.8719V10ZM39.6459 10.12C41.1859 10.12 42.1059 9.04 42.1059 7.67C42.1059 6.3 41.1859 5.22 39.6459 5.22C38.1059 5.22 37.1859 6.3 37.1859 7.67C37.1859 9.04 38.1059 10.12 39.6459 10.12ZM39.6459 9.15C38.7659 9.15 38.2759 8.52 38.2759 7.67C38.2759 6.82 38.7659 6.19 39.6459 6.19C40.5259 6.19 41.0159 6.82 41.0159 7.67C41.0159 8.52 40.5259 9.15 39.6459 9.15ZM45.3588 10.12C46.8988 10.12 47.8188 9.04 47.8188 7.67C47.8188 6.3 46.8988 5.22 45.3588 5.22C43.8188 5.22 42.8988 6.3 42.8988 7.67C42.8988 9.04 43.8188 10.12 45.3588 10.12ZM45.3588 9.15C44.4788 9.15 43.9888 8.52 43.9888 7.67C43.9888 6.82 44.4788 6.19 45.3588 6.19C46.2388 6.19 46.7288 6.82 46.7288 7.67C46.7288 8.52 46.2388 9.15 45.3588 9.15ZM48.8641 10H49.9541V7.44C49.9541 6.62 50.3541 6.15 51.0641 6.15C51.8241 6.15 52.0841 6.58 52.0841 7.57V10H53.1741V7.07C53.1741 5.85 52.5941 5.22 51.4741 5.22C50.7841 5.22 50.2441 5.49 49.9541 5.99V5.34H48.8641V10Z" fill="#00BB8D"/>
<path d="M76.7309 5.22C76.0709 5.22 75.4509 5.52 75.1709 5.97V5.34H74.0809V12.1H75.1709V9.37C75.4509 9.82 76.0409 10.12 76.6609 10.12C78.0109 10.12 78.9509 9.11 78.9509 7.67C78.9509 6.2 78.0609 5.22 76.7309 5.22ZM76.5009 9.15C75.6809 9.15 75.1209 8.55 75.1209 7.67C75.1209 6.79 75.6809 6.19 76.5009 6.19C77.3009 6.19 77.8609 6.8 77.8609 7.67C77.8609 8.54 77.3009 9.15 76.5009 9.15ZM79.9988 10H81.0888V7.53C81.0888 6.42 81.5388 6.15 82.0888 6.15C82.6588 6.15 82.9388 6.48 82.9388 7.25V10H84.0288V7.53C84.0288 6.42 84.4588 6.15 85.0088 6.15C85.5788 6.15 85.8788 6.49 85.8788 7.26V10H86.9688V7.05C86.9688 6.18 86.6888 5.22 85.2888 5.22C84.6288 5.22 84.0788 5.58 83.8588 6.05C83.6588 5.59 83.2388 5.22 82.3888 5.22C81.7788 5.22 81.2888 5.56 81.0888 5.99V5.34H79.9988V10Z" fill="#00BB8D"/>
</svg>
