<svg width="85" height="92" viewBox="0 0 85 92" fill="none" xmlns="http://www.w3.org/2000/svg">
<path fill-rule="evenodd" clip-rule="evenodd" d="M74.1554 45.8615C76.6736 43.2175 78.814 40.6993 80.4508 38.1812C83.5984 38.3071 85.487 34.5299 83.4725 32.0118C88.8865 15.3921 68.2378 16.2734 57.7876 18.7916C50.2332 -6.26385 34.1171 -6.26385 26.6886 18.7916C23.9187 18.162 21.2746 17.6584 18.7565 17.4066C17.3715 14.5107 13.4684 14.5107 11.9575 17.4066C-7.55801 19.1693 0.751835 36.1667 10.1948 45.8615C-9.19479 65.7547 0.625927 79.2268 26.5627 72.9314C27.0663 74.5682 27.57 76.0791 28.1995 77.4641C27.444 78.2195 26.8145 79.2268 26.8145 80.3599C26.8145 82.7521 28.9549 84.5148 31.3472 84.0112C42.1751 101.638 53.6326 86.5293 57.7876 72.9314C83.8502 79.2268 93.5451 65.7547 74.1554 45.8615ZM51.2404 45.9874C51.2404 41.077 47.2114 37.048 42.1751 37.048C37.2648 37.048 33.2358 41.077 33.2358 45.9874C33.2358 51.0237 37.2648 55.0527 42.1751 55.0527C47.2114 55.0527 51.2404 51.0237 51.2404 45.9874ZM79.8212 30.6268C77.1772 31.1304 75.9181 33.7745 77.1772 36.1667C75.6663 38.433 73.7777 40.8252 71.5114 43.2175C68.3637 40.3216 64.7124 37.4257 60.8093 34.6558C60.3057 30.2491 59.6762 26.2201 58.7948 22.4429C65.5938 20.8061 83.8502 18.162 79.8212 30.6268ZM42.1751 63.3625C37.013 60.8444 31.9767 58.0744 27.1922 54.9268C26.6886 48.8833 26.6886 42.8397 27.1922 36.7962C32.1026 33.6486 36.8871 30.8786 42.1751 28.4864C47.4632 30.8786 52.3736 33.6486 57.158 36.7962C57.6617 42.8397 57.6617 48.8833 57.158 54.9268C52.3736 58.0744 47.4632 60.8444 42.1751 63.3625ZM56.5285 59.8371C56.1508 62.8589 55.6471 65.6288 55.0176 68.2729C52.3736 67.3915 49.7295 66.5102 46.8337 65.377C50.1073 63.6143 53.3808 61.8516 56.5285 59.8371ZM37.5166 65.377C34.7466 66.5102 31.9767 67.3915 29.3326 68.2729C28.7031 65.5029 28.1995 62.733 27.8218 59.8371C30.9694 61.8516 34.243 63.6143 37.5166 65.377ZM23.1632 52.1568C20.3933 50.0164 17.8751 48.0019 15.6088 45.8615C17.8751 43.7211 20.3933 41.7066 23.1632 39.5662C23.0373 43.847 23.0373 47.876 23.1632 52.1568ZM27.8218 31.8859C28.1995 28.8641 28.7031 26.0942 29.3326 23.4501C31.9767 24.3315 34.7466 25.2128 37.5166 26.346C34.243 28.1087 30.9694 29.8714 27.8218 31.8859ZM46.8337 26.4719C49.7295 25.2128 52.3736 24.3315 55.0176 23.4501C55.6471 26.0942 56.1508 28.8641 56.5285 31.8859C53.3808 29.8714 50.2332 28.1087 46.8337 26.4719ZM61.187 39.5662C63.957 41.7066 66.4751 43.7211 68.7414 45.8615C66.4751 48.0019 63.957 50.0164 61.187 52.0309C61.4389 47.876 61.4389 43.847 61.187 39.5662ZM54.0104 19.7988C50.2332 20.932 46.2041 22.4429 42.1751 24.2056C38.1461 22.4429 34.1171 20.932 30.3399 19.7988C36.7611 -1.4794 47.5891 -1.4794 54.0104 19.7988ZM12.2093 21.0579C13.7202 23.4501 16.8679 23.4501 18.5047 21.1838C20.771 21.4356 23.1632 21.8133 25.6814 22.4429C24.6741 26.2201 24.0446 30.2491 23.6668 34.6558C19.6378 37.4257 15.9865 40.3216 12.8389 43.2175C6.54354 36.6703 -3.40308 22.5688 12.2093 21.0579ZM12.8389 48.5055C15.9865 51.4014 19.6378 54.2972 23.6668 57.0672C24.0446 61.348 24.6741 65.377 25.6814 69.1542C3.77359 74.4423 -3.7808 65.6288 12.8389 48.5055ZM34.243 81.4931C34.8725 79.4786 33.9912 77.4641 31.9767 76.7086C31.3472 75.3237 30.8435 73.6869 30.3399 71.9242C34.1171 70.791 38.1461 69.406 42.1751 67.5174C46.3301 69.406 50.2332 70.791 54.0104 71.9242C50.8627 82.2485 43.0565 96.476 34.243 81.4931ZM58.7948 69.1542C59.6762 65.5029 60.3057 61.348 60.8093 57.0672C64.7124 54.2972 68.3637 51.4014 71.5114 48.5055C88.1311 65.6288 80.7026 74.4423 58.7948 69.1542Z" fill="white"/>
</svg>
