<svg width="85" height="85" viewBox="0 0 85 85" fill="none" xmlns="http://www.w3.org/2000/svg">
<path d="M42.5 85C19.0273 85 0 65.9727 0 42.5C0 19.0273 19.0273 0 42.5 0C65.9727 0 85 19.0273 85 42.5C85 65.9727 65.9727 85 42.5 85ZM36.6435 27.2638C36.3877 27.0931 36.0904 26.995 35.7833 26.9799C35.4762 26.9649 35.1708 27.0334 34.8995 27.1782C34.6282 27.323 34.4013 27.5386 34.2429 27.8021C34.0845 28.0657 34.0006 28.3673 34 28.6747V56.3253C34.0006 56.6327 34.0845 56.9343 34.2429 57.1979C34.4013 57.4614 34.6282 57.6771 34.8995 57.8218C35.1708 57.9666 35.4762 58.0351 35.7833 58.0201C36.0904 58.005 36.3877 57.9069 36.6435 57.7363L57.3793 43.9153C57.6124 43.7601 57.8037 43.5497 57.9359 43.3028C58.0682 43.0559 58.1374 42.7801 58.1374 42.5C58.1374 42.2199 58.0682 41.9441 57.9359 41.6972C57.8037 41.4503 57.6124 41.2399 57.3793 41.0847L36.6393 27.2638H36.6435Z" fill="white"/>
</svg>
