<svg width="89" height="93" viewBox="0 0 89 93" fill="none" xmlns="http://www.w3.org/2000/svg">
<path fill-rule="evenodd" clip-rule="evenodd" d="M40.6385 22.7082C40.6385 25.5117 38.3315 27.7922 35.4955 27.7922C32.6584 27.7922 30.3513 25.5117 30.3513 22.7082C30.3513 19.9048 32.6594 17.6243 35.4955 17.6243C38.3315 17.6243 40.6385 19.9048 40.6385 22.7082ZM38.3147 22.7083C38.3147 21.1718 37.0498 19.9214 35.4954 19.9214C33.9399 19.9214 32.675 21.1718 32.675 22.7083C32.675 24.2449 33.9399 25.4952 35.4954 25.4952C37.0498 25.4952 38.3147 24.2449 38.3147 22.7083Z" fill="white"/>
<path fill-rule="evenodd" clip-rule="evenodd" d="M58.6488 22.7082C58.6488 25.5117 56.3407 27.7922 53.5047 27.7922C50.6686 27.7922 48.3616 25.5117 48.3616 22.7082C48.3616 19.9048 50.6686 17.6243 53.5047 17.6243C56.3407 17.6243 58.6488 19.9048 58.6488 22.7082ZM56.3249 22.7083C56.3249 21.1718 55.0601 19.9214 53.5046 19.9214C51.9502 19.9214 50.6853 21.1718 50.6853 22.7083C50.6853 24.2449 51.9502 25.4952 53.5046 25.4952C55.0601 25.4952 56.3249 24.2449 56.3249 22.7083Z" fill="white"/>
<path fill-rule="evenodd" clip-rule="evenodd" d="M38.7609 29.8713H50.2388C52.6441 29.8713 54.601 31.8057 54.601 34.1834C54.601 36.561 52.6441 38.4954 50.2388 38.4954H38.7609C36.3556 38.4954 34.3987 36.561 34.3987 34.1834C34.3987 31.8057 36.3556 29.8713 38.7609 29.8713ZM38.761 36.1985H40.399V32.1685H38.761C37.6372 32.1685 36.7225 33.0716 36.7225 34.1835C36.7225 35.2954 37.6372 36.1985 38.761 36.1985ZM46.2781 36.1985H42.7218V32.1685H46.2781V36.1985ZM48.6006 36.1985H50.2387C51.3635 36.1985 52.2771 35.2943 52.2771 34.1835C52.2771 33.0727 51.3624 32.1685 50.2387 32.1685H48.6006V36.1985Z" fill="white"/>
<path fill-rule="evenodd" clip-rule="evenodd" d="M24.4 35.3666H20.8604C17.8739 35.3666 15.4456 32.9652 15.4456 30.014V25.2597C15.4456 22.3074 17.8739 19.906 20.8604 19.906H24.4L24.4062 19.6528C24.5275 14.976 28.4737 11.1713 33.2018 11.1713H43.2883V6.36524L43.1336 6.29601C41.9377 5.76281 41.1652 4.58482 41.1652 3.29626C41.1652 1.47863 42.6611 -6.10352e-05 44.4999 -6.10352e-05C46.3386 -6.10352e-05 47.8345 1.47863 47.8345 3.29419C47.8345 4.58275 47.062 5.76075 45.8672 6.29394L45.7125 6.36318V11.1702H55.7979C60.526 11.1702 64.4722 14.9749 64.5935 19.6518L64.5997 19.905H68.1393C71.1258 19.905 73.5542 22.3064 73.5542 25.2586V30.013C73.5542 32.9652 71.1258 35.3666 68.1393 35.3666H64.5997L64.5935 35.6198C64.4722 40.2967 60.526 44.1014 55.7979 44.1014H33.2018C28.4737 44.1014 24.5275 40.2967 24.4062 35.6198L24.4 35.3666ZM68.139 22.2031H65.5842V33.0706H68.139C69.844 33.0706 71.2312 31.6994 71.2312 30.014V25.2597C71.2312 23.5743 69.844 22.2031 68.139 22.2031ZM26.7166 19.877C26.7166 16.343 29.6257 13.4683 33.2008 13.4683H55.797C59.3721 13.4683 62.2812 16.343 62.2812 19.877V35.3956C62.2812 38.9295 59.3721 41.8043 55.797 41.8043H33.2019C29.6268 41.8043 26.7176 38.9295 26.7176 35.3956V19.877H26.7166ZM20.8605 22.2031C19.1566 22.2031 17.7694 23.5743 17.7694 25.2597V30.013C17.7694 31.6983 19.1566 33.0695 20.8605 33.0695H23.4153V22.2031H20.8605Z" fill="white"/>
<path fill-rule="evenodd" clip-rule="evenodd" d="M82.7125 63.2738L82.5505 63.2428L82.5087 63.0836C80.0145 53.5708 71.3256 46.9265 61.3812 46.9265H60.5983C60.1571 46.8635 59.8174 46.8356 59.4891 46.8356H29.5118C29.1846 46.8356 28.8449 46.8635 28.4424 46.9234L27.6135 46.9265C17.6691 46.9265 8.98334 53.5708 6.49228 63.0847L6.45047 63.2438L6.28844 63.2748C2.85135 63.9361 0.335203 67.0113 0.220215 70.6393H3.0301C3.15554 68.0116 5.17097 65.916 7.62961 65.916C10.0883 65.916 12.1058 68.0116 12.2302 70.6393H15.0401C14.9313 67.2583 12.7121 64.3112 9.56664 63.4174L9.31053 63.3451L9.38788 63.0929C11.2841 56.8434 16.4492 51.9433 22.8697 50.3034L23.4373 50.1588L23.1697 50.6734C22.6449 51.6808 22.3794 52.7617 22.3794 53.8849V74.3107H21.9561C16.744 74.3107 12.5041 78.5019 12.5041 83.6541C12.5041 88.8063 16.745 92.9975 21.9561 92.9975H67.0459C72.258 92.9975 76.4979 88.8063 76.4979 83.6541C76.4979 78.5019 72.257 74.3107 67.0459 74.3107H66.6226V53.886C66.6226 52.7627 66.3571 51.6839 65.8323 50.6765L65.5647 50.1608L66.1323 50.3055C72.5507 51.9464 77.7147 56.8475 79.612 63.094L79.6894 63.3461L79.4333 63.4184C76.2899 64.3123 74.0706 67.2593 73.9619 70.6393H76.7718C76.8973 68.0116 78.9127 65.916 81.3724 65.916C83.8321 65.916 85.8475 68.0116 85.9719 70.6393H88.7818C88.6657 67.0103 86.1496 63.9351 82.7125 63.2738ZM25.1852 53.8859C25.1852 51.5289 27.1253 49.611 29.5108 49.611H59.4882C61.8736 49.611 63.8138 51.5289 63.8138 53.8859V74.3117H25.1852V53.8859ZM73.3537 83.6551C73.3537 80.2152 70.5239 77.4169 67.045 77.4169H21.9551C18.4762 77.4169 15.6465 80.2152 15.6465 83.6551C15.6465 87.0951 18.4762 89.8933 21.9551 89.8933H67.045C70.5239 89.8933 73.3537 87.0951 73.3537 83.6551Z" fill="white"/>
<path fill-rule="evenodd" clip-rule="evenodd" d="M28.8951 83.6551C28.8951 86.3066 26.7124 88.4642 24.0301 88.4642C21.3477 88.4642 19.165 86.3076 19.165 83.6551C19.165 81.0035 21.3477 78.8459 24.0301 78.8459C26.7124 78.8459 28.8951 81.0035 28.8951 83.6551ZM26.283 83.6562C26.283 82.4276 25.2722 81.4294 24.0303 81.4294C22.7874 81.4294 21.7776 82.4276 21.7776 83.6562C21.7776 84.8838 22.7874 85.882 24.0303 85.882C25.2732 85.882 26.283 84.8838 26.283 83.6562Z" fill="white"/>
<path fill-rule="evenodd" clip-rule="evenodd" d="M69.835 83.6551C69.835 86.3066 67.6524 88.4642 64.97 88.4642C62.2877 88.4642 60.106 86.3076 60.105 83.6551C60.105 81.0035 62.2877 78.8459 64.97 78.8459C67.6524 78.8459 69.835 81.0035 69.835 83.6551ZM67.2228 83.6562C67.2228 82.4276 66.212 81.4294 64.9701 81.4294C63.7283 81.4294 62.7185 82.4276 62.7174 83.6562C62.7174 84.8838 63.7283 85.882 64.9701 85.882C66.213 85.882 67.2228 84.8838 67.2228 83.6562Z" fill="white"/>
<path fill-rule="evenodd" clip-rule="evenodd" d="M49.3648 83.6551C49.3648 86.3066 47.1822 88.4642 44.4998 88.4642C41.8174 88.4642 39.6348 86.3076 39.6348 83.6551C39.6348 81.0035 41.8174 78.8459 44.4998 78.8459C47.1822 78.8459 49.3648 81.0035 49.3648 83.6551ZM46.7525 83.6561C46.7525 82.4275 45.7417 81.4293 44.4998 81.4293C43.2579 81.4293 42.2471 82.4275 42.2471 83.6561C42.2471 84.8837 43.2569 85.8819 44.4998 85.8819C45.7427 85.8819 46.7525 84.8837 46.7525 83.6561Z" fill="white"/>
<path fill-rule="evenodd" clip-rule="evenodd" d="M32.2798 65.7104C32.2798 58.8295 37.7616 53.2309 44.4999 53.2309C51.2381 53.2309 56.7199 58.8295 56.7199 65.7063L56.7168 65.8706C56.6917 66.6042 56.0854 67.2242 55.3923 67.2242H33.6074C32.8882 67.2242 32.2955 66.6456 32.285 65.9336L32.2798 65.7104ZM45.1833 64.6097H54.0123L53.9726 64.3152C53.2879 59.4865 49.2163 55.845 44.5007 55.845C39.7622 55.845 35.6864 59.4875 35.0195 64.3163L34.9797 64.6108H42.3755L44.3774 59.1C44.4965 58.7725 44.737 58.51 45.0558 58.3612C45.3725 58.2103 45.7332 58.1938 46.0677 58.3126C46.4001 58.4304 46.6667 58.6691 46.8172 58.9853C46.9667 59.3005 46.9845 59.6549 46.8643 59.9835L45.1833 64.6097Z" fill="white"/>
</svg>
