<svg width="90" height="35" viewBox="0 0 90 35" fill="none" xmlns="http://www.w3.org/2000/svg">
<path d="M5.48719 27H8.90719V6.6H5.78719C5.78719 9.12 4.97719 10.08 1.16719 10.08V12.96H5.48719V27ZM21.2503 27.36C26.3803 27.36 29.0803 23.7 29.0803 16.8C29.0803 9.9 26.3803 6.24 21.2503 6.24C16.1203 6.24 13.4203 9.9 13.4203 16.8C13.4203 23.7 16.1203 27.36 21.2503 27.36ZM21.2503 24.36C18.1903 24.36 16.6903 21.87 16.6903 16.8C16.6903 11.73 18.1903 9.24 21.2503 9.24C24.3103 9.24 25.8103 11.73 25.8103 16.8C25.8103 21.87 24.3103 24.36 21.2503 24.36ZM39.4395 20.52H48.7095V17.61H39.4395V20.52ZM66.2948 12.66H66.2348L70.9748 6.6H66.8648L60.4448 15.27C59.4548 16.56 58.9148 18.21 58.9148 20.01C58.9148 24.12 61.6748 27.36 66.2948 27.36C70.9148 27.36 73.6748 24.12 73.6748 20.01C73.6748 15.9 70.9148 12.66 66.2948 12.66ZM66.2948 24.45C63.6548 24.45 62.1848 22.56 62.1848 20.01C62.1848 17.46 63.6548 15.57 66.2948 15.57C68.9348 15.57 70.4048 17.46 70.4048 20.01C70.4048 22.56 68.9348 24.45 66.2948 24.45Z" fill="#FFB600"/>
<path d="M32.0209 10.12C32.5909 10.12 33.2309 9.84 33.5109 9.37V10H34.6009V5.34H33.5109V5.97C33.2309 5.5 32.6709 5.22 32.0509 5.22C30.6009 5.22 29.7309 6.3 29.7309 7.67C29.7309 9.04 30.5209 10.12 32.0209 10.12ZM32.1809 9.15C31.3309 9.15 30.8209 8.52 30.8209 7.67C30.8209 6.82 31.3309 6.19 32.1809 6.19C33.1109 6.19 33.5609 6.87 33.5609 7.67C33.5609 8.47 33.1109 9.15 32.1809 9.15ZM35.9988 10H37.0888V7.53C37.0888 6.42 37.5388 6.15 38.0888 6.15C38.6588 6.15 38.9388 6.48 38.9388 7.25V10H40.0288V7.53C40.0288 6.42 40.4588 6.15 41.0088 6.15C41.5788 6.15 41.8788 6.49 41.8788 7.26V10H42.9688V7.05C42.9688 6.18 42.6888 5.22 41.2888 5.22C40.6288 5.22 40.0788 5.58 39.8588 6.05C39.6588 5.59 39.2388 5.22 38.3888 5.22C37.7788 5.22 37.2888 5.56 37.0888 5.99V5.34H35.9988V10Z" fill="#FFB600"/>
<path d="M78.7309 5.22C78.0709 5.22 77.4509 5.52 77.1709 5.97V5.34H76.0809V12.1H77.1709V9.37C77.4509 9.82 78.0409 10.12 78.6609 10.12C80.0109 10.12 80.9509 9.11 80.9509 7.67C80.9509 6.2 80.0609 5.22 78.7309 5.22ZM78.5009 9.15C77.6809 9.15 77.1209 8.55 77.1209 7.67C77.1209 6.79 77.6809 6.19 78.5009 6.19C79.3009 6.19 79.8609 6.8 79.8609 7.67C79.8609 8.54 79.3009 9.15 78.5009 9.15ZM81.9988 10H83.0888V7.53C83.0888 6.42 83.5388 6.15 84.0888 6.15C84.6588 6.15 84.9388 6.48 84.9388 7.25V10H86.0288V7.53C86.0288 6.42 86.4588 6.15 87.0088 6.15C87.5788 6.15 87.8788 6.49 87.8788 7.26V10H88.9688V7.05C88.9688 6.18 88.6888 5.22 87.2888 5.22C86.6288 5.22 86.0788 5.58 85.8588 6.05C85.6588 5.59 85.2388 5.22 84.3888 5.22C83.7788 5.22 83.2888 5.56 83.0888 5.99V5.34H81.9988V10Z" fill="#FFB600"/>
</svg>
