<?xml version="1.0" encoding="utf-8"?>
<!-- Generator: Adobe Illustrator 22.1.0, SVG Export Plug-In . SVG Version: 6.00 Build 0)  -->
<svg version="1.1" id="Layer_1" xmlns="http://www.w3.org/2000/svg" xmlns:xlink="http://www.w3.org/1999/xlink" x="0px" y="0px"
	 viewBox="0 0 74 17.1" style="enable-background:new 0 0 74 17.1;" xml:space="preserve">
<style type="text/css">
	.st0{fill:#FFB600;}
</style>
<title>Artboard 1 copy 3</title>
<path class="st0" d="M0.7,3.3c0.6,0,1.1,0,1.7-0.1c0.4-0.1,0.7-0.2,1-0.4C3.6,2.6,3.8,2.3,3.9,2C4,1.5,4,1.1,4,0.7h1.9v15.5H3.8V4.9
	H0.7V3.3z"/>
<path class="st0" d="M8.8,5.7c0-0.7,0.1-1.4,0.4-2c0.5-1.3,1.5-2.3,2.7-2.8c0.7-0.3,1.4-0.4,2.1-0.5c0.8,0,1.5,0.1,2.2,0.4
	c0.6,0.3,1.2,0.6,1.7,1.1S18.7,3,19,3.6c0.2,0.6,0.4,1.3,0.4,2v5.5c0,0.7-0.1,1.4-0.4,2c-0.2,0.6-0.6,1.2-1.1,1.7
	c-0.5,0.5-1,0.9-1.7,1.1c-0.7,0.3-1.5,0.4-2.2,0.4s-1.5-0.1-2.2-0.4c-0.6-0.3-1.2-0.7-1.7-1.1c-0.5-0.5-0.8-1.1-1.1-1.7
	c-0.2-0.6-0.4-1.3-0.4-2V5.7H8.8z M17.4,5.7c0-0.5-0.1-0.9-0.2-1.3C17,4,16.8,3.6,16.5,3.3c-0.3-0.3-0.7-0.6-1.1-0.7
	C15,2.3,14.5,2.2,14,2.3c-0.5,0-0.9,0.1-1.3,0.3c-0.4,0.2-0.7,0.4-1,0.7C11.4,3.6,11.2,4,11,4.4s-0.2,0.9-0.2,1.3v5.5
	c0,0.5,0.1,0.9,0.2,1.3c0.1,0.4,0.4,0.8,0.6,1.1c0.3,0.3,0.6,0.6,1,0.8s0.9,0.3,1.3,0.3c0.5,0,0.9-0.1,1.4-0.3
	c0.4-0.2,0.8-0.4,1.1-0.8c0.3-0.3,0.5-0.7,0.7-1.1c0.2-0.4,0.2-0.9,0.2-1.3L17.4,5.7z"/>
<g>
	<path class="st0" d="M21.3,0.4H22v2.7c0.1-0.3,0.3-0.5,0.5-0.6c0.3-0.1,0.5-0.2,0.8-0.2c0.3,0,0.5,0.1,0.7,0.1
		c0.2,0.1,0.3,0.2,0.5,0.4c0.1,0.1,0.2,0.3,0.3,0.5s0.1,0.5,0.1,0.7v2.3h-0.7V4.2c0-0.2,0-0.3-0.1-0.5c0-0.1-0.1-0.3-0.1-0.4
		c-0.2-0.1-0.3-0.1-0.4-0.2c-0.1-0.1-0.3-0.1-0.5-0.1c-0.2,0-0.3,0-0.5,0.1c-0.1,0.1-0.3,0.2-0.3,0.3c-0.1,0.1-0.1,0.3-0.2,0.4
		c-0.1,0.1-0.1,0.3-0.1,0.5v2h-0.7L21.3,0.4L21.3,0.4z"/>
	<path class="st0" d="M28.4,3.1h-0.2H28c-0.4,0-0.7,0.1-1,0.4c-0.2,0.3-0.3,0.7-0.3,1.1v1.7H26V2.5h0.7v0.7c0.1-0.3,0.3-0.5,0.5-0.6
		c0.3-0.1,0.6-0.2,0.8-0.2c0.1,0,0.3,0,0.4,0.1L28.4,3.1L28.4,3.1z"/>
	<path class="st0" d="M30.7,4.2c0.1,0.1,0.3,0.1,0.5,0.1c0.1,0.1,0.3,0.1,0.4,0.2c0.1,0.1,0.2,0.2,0.3,0.3c0.1,0.1,0.1,0.3,0.1,0.5
		c0,0.2,0,0.3-0.1,0.5c-0.1,0.1-0.2,0.3-0.3,0.4c-0.1,0.1-0.3,0.2-0.5,0.2c-0.3,0.1-0.5,0.1-0.7,0.1s-0.4,0-0.6-0.1
		c-0.2-0.1-0.3-0.1-0.5-0.3c-0.1-0.1-0.3-0.3-0.3-0.5c-0.1-0.2-0.1-0.4-0.1-0.6h0.7c-0.1,0.3,0.1,0.5,0.3,0.7
		c0.2,0.1,0.4,0.2,0.7,0.2c0.2,0,0.4-0.1,0.6-0.1c0.1-0.1,0.2-0.3,0.2-0.4c0-0.1,0-0.2-0.1-0.3C31,5,31,5,30.8,4.9
		c-0.1-0.1-0.3-0.1-0.4-0.1c-0.1-0.1-0.3-0.1-0.5-0.1c-0.1-0.1-0.3-0.2-0.4-0.2c-0.1-0.1-0.2-0.1-0.3-0.2C29.2,4.2,29,4.1,29,4
		C29,3.9,29,3.7,29,3.6c0-0.2,0-0.3,0.1-0.5c0.1-0.1,0.2-0.3,0.3-0.3c0.1-0.2,0.2-0.3,0.3-0.3c0.2-0.1,0.4-0.1,0.5-0.1
		c0.2,0,0.4,0,0.6,0.1c0.2,0.1,0.3,0.1,0.5,0.3c0.1,0.1,0.3,0.3,0.3,0.4c0.1,0.1,0.1,0.3,0.1,0.5H31c0-0.2-0.1-0.4-0.2-0.5
		c-0.1-0.1-0.4-0.2-0.6-0.2c-0.2,0-0.3,0.1-0.5,0.1c-0.1,0.1-0.2,0.3-0.2,0.4c0,0.1,0,0.2,0.1,0.3c0.1,0.1,0.1,0.1,0.2,0.1
		C29.9,3.9,30,3.9,30.1,4L30.7,4.2z"/>
</g>
<g>
	<path class="st0" d="M63.3,0.4H64v2.7c0.1-0.3,0.3-0.5,0.5-0.6c0.3-0.1,0.5-0.2,0.8-0.2c0.3,0,0.5,0.1,0.7,0.1
		c0.2,0.1,0.3,0.2,0.5,0.4c0.1,0.1,0.2,0.3,0.3,0.5s0.1,0.5,0.1,0.7v2.3h-0.7V4.2c0-0.2,0-0.3-0.1-0.5c0-0.1-0.1-0.3-0.1-0.4
		c-0.2-0.1-0.3-0.1-0.4-0.2c-0.1-0.1-0.3-0.1-0.5-0.1c-0.2,0-0.3,0-0.5,0.1c-0.1,0.1-0.3,0.2-0.3,0.3c-0.1,0.1-0.1,0.3-0.2,0.4
		c-0.1,0.1-0.1,0.3-0.1,0.5v2h-0.7L63.3,0.4L63.3,0.4z"/>
	<path class="st0" d="M70.4,3.1h-0.2H70c-0.4,0-0.7,0.1-1,0.4c-0.2,0.3-0.3,0.7-0.3,1.1v1.7H68V2.5h0.7v0.7c0.1-0.3,0.3-0.5,0.5-0.6
		c0.3-0.1,0.6-0.2,0.8-0.2c0.1,0,0.3,0,0.4,0.1L70.4,3.1L70.4,3.1z"/>
	<path class="st0" d="M72.7,4.2c0.1,0.1,0.3,0.1,0.5,0.1c0.1,0.1,0.3,0.1,0.4,0.2s0.2,0.2,0.3,0.3c0.1,0.1,0.1,0.3,0.1,0.5
		c0,0.2,0,0.3-0.1,0.5c-0.1,0.1-0.2,0.3-0.3,0.4c-0.1,0.1-0.3,0.2-0.5,0.2c-0.3,0.1-0.5,0.1-0.7,0.1c-0.2,0-0.4,0-0.6-0.1
		c-0.2-0.1-0.3-0.1-0.5-0.3c-0.1-0.1-0.3-0.3-0.3-0.5c-0.1-0.2-0.1-0.4-0.1-0.6h0.7c-0.1,0.3,0.1,0.5,0.3,0.7
		c0.2,0.1,0.4,0.2,0.7,0.2c0.2,0,0.4-0.1,0.6-0.1c0.1-0.1,0.2-0.3,0.2-0.4c0-0.1,0-0.2-0.1-0.3C73,5,73,5,72.8,4.9s-0.3-0.1-0.4-0.1
		c-0.1-0.1-0.3-0.1-0.5-0.1c-0.1-0.1-0.3-0.2-0.4-0.2c-0.1-0.1-0.2-0.1-0.3-0.2C71.2,4.2,71,4.1,71,4C71,3.9,71,3.7,71,3.6
		c0-0.2,0-0.3,0.1-0.5c0.1-0.1,0.2-0.3,0.3-0.3c0.1-0.2,0.2-0.3,0.3-0.3c0.2-0.1,0.4-0.1,0.5-0.1c0.2,0,0.4,0,0.6,0.1
		c0.2,0.1,0.3,0.1,0.5,0.3c0.1,0.1,0.3,0.3,0.3,0.4c0.1,0.1,0.1,0.3,0.1,0.5H73c0-0.2-0.1-0.4-0.2-0.5c-0.1-0.1-0.4-0.2-0.6-0.2
		c-0.2,0-0.3,0.1-0.5,0.1c-0.1,0.1-0.2,0.3-0.2,0.4c0,0.1,0,0.2,0.1,0.3c0.1,0.1,0.1,0.1,0.2,0.1C71.9,3.9,72,3.9,72.1,4L72.7,4.2z"
		/>
</g>
<path class="st0" d="M36.7,10.8h-5.2V9h5.2V10.8z"/>
<path class="st0" d="M42.6,3.3c0.6,0,1.1,0,1.7-0.1c0.4-0.1,0.7-0.2,1-0.4c0.2-0.2,0.4-0.5,0.5-0.8C45.9,1.5,46,1.1,46,0.7h1.9v15.5
	h-2.1V4.9h-3.2C42.6,4.9,42.6,3.3,42.6,3.3z"/>
<path class="st0" d="M56,16.5c-0.7,0-1.5-0.1-2.2-0.4c-0.6-0.2-1.2-0.6-1.6-1s-0.8-0.9-1-1.5s-0.4-1.2-0.4-1.8
	c0-0.4,0.1-0.8,0.2-1.2s0.3-0.8,0.5-1.1s0.5-0.6,0.8-0.9C52.6,8.3,53,8.1,53.4,8c-0.4-0.1-0.7-0.3-1-0.6c-0.3-0.2-0.5-0.5-0.7-0.8
	S51.4,6,51.3,5.7s-0.1-0.7-0.1-1c0-0.6,0.1-1.1,0.3-1.7c0.2-0.5,0.6-1,1-1.4C52.9,1.3,53.4,1,54,0.8s1.3-0.3,2-0.3s1.4,0.1,2,0.3
	s1.1,0.5,1.5,0.9s0.8,0.8,1,1.4c0.2,0.5,0.3,1.1,0.3,1.7c0,0.3,0,0.7-0.1,1s-0.2,0.7-0.4,0.9c-0.2,0.3-0.4,0.6-0.7,0.8
	c-0.3,0.2-0.6,0.4-1,0.6c0.4,0.1,0.8,0.3,1.1,0.6C60,9,60.3,9.3,60.5,9.6c0.2,0.3,0.4,0.7,0.5,1.1c0.1,0.4,0.1,0.8,0.2,1.2
	c0,0.6-0.1,1.2-0.3,1.8c-0.2,0.6-0.6,1.1-1,1.5c-0.5,0.4-1,0.8-1.6,1C57.5,16.3,56.8,16.5,56,16.5z M56,14.6c0.5,0,0.9-0.1,1.3-0.2
	c0.4-0.1,0.7-0.3,1-0.6c0.3-0.2,0.5-0.5,0.7-0.8s0.2-0.7,0.2-1.1c0-0.4-0.1-0.8-0.2-1.1s-0.3-0.6-0.6-0.9c-0.3-0.3-0.6-0.5-1-0.6
	c-0.9-0.3-1.8-0.3-2.7,0c-0.4,0.1-0.7,0.3-1,0.6c-0.3,0.2-0.5,0.5-0.6,0.9c-0.1,0.3-0.2,0.7-0.2,1.1c0,0.8,0.3,1.5,0.8,2
	c0.3,0.3,0.6,0.5,1,0.6C55.1,14.6,55.6,14.7,56,14.6z M56,7.4c0.8,0,1.5-0.2,2.1-0.8c1-1,1-2.6,0-3.6c-0.6-0.5-1.3-0.8-2.1-0.8
	c-0.4,0-0.8,0.1-1.2,0.2C54.5,2.6,54.2,2.8,54,3c-0.2,0.2-0.4,0.5-0.6,0.8c-0.1,0.3-0.2,0.7-0.2,1c0,0.7,0.3,1.4,0.8,1.9
	C54.5,7.2,55.3,7.5,56,7.4z"/>
</svg>
