<svg width="142" height="36" viewBox="0 0 142 36" fill="none" xmlns="http://www.w3.org/2000/svg">
<path d="M32.9454 16.5372C32.8041 15.4207 32.5497 14.3465 32.1963 13.3148C32.0833 12.9615 31.9419 12.6222 31.8006 12.2972C31.7158 12.0852 31.6168 11.8873 31.532 11.6894C31.1928 11.3926 30.7123 11.2937 30.147 11.4068C30.0622 11.4209 29.9915 11.435 29.9067 11.4492C29.5392 11.5198 29.1859 11.5905 28.8184 11.6753C28.564 11.7318 28.2955 11.7884 28.0411 11.8308C28.0269 11.8308 28.0269 11.8308 28.0128 11.8308L27.9987 11.8025C27.9563 11.5764 27.9138 11.3644 27.8714 11.1524C27.7725 10.6577 27.6594 10.1347 27.5464 9.62593C27.3626 8.77791 26.6277 8.29737 25.7655 8.45284C25.4405 8.50938 25.1295 8.58004 24.8186 8.65071H24.8045C23.8575 8.84858 23.377 9.56939 23.5607 10.5163C23.6455 10.9686 23.7444 11.435 23.8434 11.8873C23.8999 12.1417 23.9423 12.3961 23.9988 12.6505C23.9988 12.6646 23.9988 12.6646 23.9988 12.6788L23.9706 12.6929C23.7444 12.7353 23.5324 12.7777 23.3063 12.8342C22.8116 12.9332 22.3028 13.0321 21.8081 13.1452C20.9036 13.3431 20.4372 14.0639 20.6068 14.9684C20.6775 15.3076 20.734 15.6327 20.8047 15.9578C21.0025 16.8482 21.7375 17.3287 22.6279 17.145C23.1226 17.0461 23.6314 16.9471 24.1261 16.834C24.3381 16.7916 24.5501 16.7492 24.7621 16.7068L24.8186 16.6927V16.721C24.861 16.9471 24.9175 17.1733 24.9599 17.3994C25.0589 17.9082 25.1719 18.4311 25.285 18.94C25.4546 19.6608 26.0341 20.1272 26.7408 20.1272C26.8397 20.1272 26.9528 20.113 27.0517 20.0989C27.3202 20.0424 27.5888 19.9858 27.8432 19.9434L28.0128 19.9152C28.9739 19.7173 29.4544 18.9824 29.2565 18.0213C29.1717 17.5973 29.0869 17.1591 28.988 16.7351C28.9315 16.4524 28.8749 16.1698 28.8184 15.8871V15.873L29.4827 15.7316C29.9632 15.6327 30.4438 15.5338 30.9243 15.4348C31.0656 15.4066 31.207 15.3642 31.32 15.3076C31.4048 15.6751 31.4755 16.0426 31.532 16.41C31.6451 17.1591 31.7016 17.9365 31.7016 18.7138C31.7016 19.8162 31.5886 20.8763 31.3624 21.908C31.207 21.8232 31.0232 21.7667 30.8254 21.7101C29.3272 21.3709 27.8432 21.0317 26.345 20.6925L23.7727 20.113C23.6596 20.0848 23.5466 20.0565 23.4476 20.0424C23.1791 19.9858 22.9106 19.9152 22.642 19.8728C21.7657 19.7173 20.9884 20.2402 20.8047 21.1165C20.734 21.4557 20.6775 21.7525 20.6209 22.0635C20.4655 22.968 20.9743 23.7595 21.8505 23.9574C24.4794 24.5651 27.1506 25.1729 29.7371 25.7523L29.9491 25.7947C29.7653 26.1481 29.5533 26.5014 29.3413 26.8406C29.2707 26.9396 29.2 27.0526 29.1435 27.1516C29.4403 27.4908 29.8643 27.7028 30.3166 27.7876C30.3731 27.7028 30.4296 27.618 30.4862 27.5332C30.9102 26.8689 31.2918 26.1622 31.6168 25.4414C31.8006 25.0457 31.956 24.6216 32.1115 24.2118C32.7193 22.4875 33.0443 20.6501 33.0443 18.7279C33.0726 17.9506 33.0302 17.2439 32.9454 16.5372ZM31.0091 14.0073C30.9808 14.1063 30.8678 14.1628 30.6699 14.2052C30.1894 14.3041 29.7229 14.4031 29.2424 14.502C28.8608 14.5868 28.4792 14.6575 28.0976 14.7423C27.504 14.8695 27.3485 15.1098 27.4616 15.7175C27.5322 16.085 27.617 16.4524 27.6877 16.8199C27.7866 17.2722 27.8714 17.7386 27.9704 18.205C28.0411 18.5583 27.9987 18.629 27.6453 18.6997L27.5605 18.7138C27.3485 18.7562 27.1224 18.8127 26.9104 18.841C26.6277 18.8976 26.5288 18.841 26.4722 18.5583C26.3733 18.0778 26.2744 17.5973 26.1754 17.1167C26.1048 16.7492 26.02 16.3676 25.9493 15.986C25.8645 15.5479 25.6383 15.3359 25.2709 15.3359C25.2002 15.3359 25.1154 15.35 25.0306 15.3642C24.5218 15.4631 24.013 15.5762 23.5042 15.6751C23.1932 15.7316 22.8823 15.8023 22.5714 15.873C22.2463 15.9436 22.0626 15.8164 21.9919 15.4914V15.4772C21.9353 15.237 21.8929 14.9967 21.8505 14.7705C21.794 14.4879 21.8505 14.3889 22.1332 14.3324C22.4442 14.2617 22.7551 14.2052 23.066 14.1345L24.6631 13.8095C25.3698 13.6681 25.5111 13.4561 25.3557 12.7353L25.1719 11.8732C25.073 11.3644 24.9599 10.8697 24.861 10.3609C24.7762 9.97927 24.8327 9.9086 25.2143 9.8238L25.3981 9.7814C25.5677 9.739 25.7514 9.71073 25.921 9.66833C26.2037 9.61179 26.3026 9.68246 26.3592 9.951C26.4722 10.5163 26.5994 11.0817 26.7125 11.647L26.8962 12.5374C27.0234 13.1311 27.292 13.3148 27.8997 13.1876C28.3237 13.1028 28.7619 13.018 29.1859 12.9191C29.5816 12.8342 29.9632 12.7636 30.359 12.6788C30.4155 12.6646 30.4579 12.6646 30.5003 12.6505C30.7264 12.6222 30.7971 12.707 30.8536 13.0039C30.896 13.23 30.9526 13.4561 30.995 13.6823C31.0232 13.8377 31.0374 13.9367 31.0091 14.0073ZM30.0904 27.0385C30.0339 26.9961 29.9632 26.9678 29.9067 26.9396C29.9632 26.9678 30.0339 26.9961 30.0904 27.0385ZM30.26 27.1516C30.3024 27.194 30.3448 27.2222 30.3731 27.2646C30.3307 27.2222 30.2883 27.194 30.26 27.1516ZM30.9808 23.4344C30.8536 23.8019 30.7264 24.1694 30.571 24.5368C30.5568 24.5368 30.5427 24.5368 30.5286 24.5368C27.9421 23.9574 25.2426 23.3355 22.2604 22.6571C22.0343 22.6005 21.9777 22.5157 22.0201 22.2755C22.0767 21.9928 22.1332 21.6819 22.2039 21.3851C22.2604 21.1731 22.2887 21.1165 22.4018 21.1165C22.4442 21.1165 22.5007 21.1307 22.5855 21.1448C25.1578 21.7243 27.928 22.3603 30.7547 23.0104C30.8254 23.0246 30.896 23.067 30.9526 23.1094C30.9526 23.1094 30.9526 23.1094 30.9667 23.1094C30.9808 23.18 30.995 23.2931 30.9808 23.4344Z" fill="#7F858B"/>
<path d="M17.5397 2.17743C17.5397 2.1209 17.5397 2.06436 17.5255 1.9937V1.95129C18.105 1.82409 18.2039 1.59796 18.1757 0.848876V0.778208C18.1474 0.142198 17.9778 -0.0132715 17.3276 0.000862054C16.2535 0.0432628 15.1935 0.0856635 14.1193 0.113931C13.4551 0.142198 13.2996 0.311801 13.3278 0.976078C13.3561 1.73929 13.4551 1.93716 14.0628 2.06436C14.0628 2.0785 14.0628 2.09263 14.0628 2.10676C14.0628 2.17743 14.0628 2.2481 14.0769 2.31877C14.0911 2.61557 14.1052 2.91238 14.1052 3.20918C14.1052 3.35052 14.1193 3.50599 14.1193 3.66146C14.1476 4.41054 14.1759 5.15962 14.2183 5.90869C14.2183 5.92283 14.2183 5.93696 14.2183 5.9511C14.2183 5.9935 14.2183 6.00763 14.2183 6.00763C14.2183 6.00763 14.19 6.0359 14.1052 6.06416C11.9145 7.08178 10.8262 9.56929 11.5753 11.8589C12.2254 13.8518 14.0911 15.1662 16.1263 15.1662C16.4231 15.1662 16.734 15.1379 17.0308 15.0814C19.0519 14.6856 20.6632 12.9331 20.8469 10.9261C21.0589 8.70714 19.8293 6.70017 17.7941 5.9511C17.6951 5.92283 17.681 5.89456 17.681 5.89456C17.681 5.89456 17.6669 5.86629 17.6669 5.76736C17.6527 5.01828 17.6245 4.2692 17.5962 3.52012C21.2851 3.77453 24.6064 5.34335 27.1222 7.76019C27.518 7.91566 27.8996 7.9298 28.1822 7.42099C28.2388 7.29378 28.267 7.16658 28.2812 7.03938C25.4827 4.24093 21.7232 2.4177 17.5397 2.17743ZM17.2852 6.91218C18.0909 7.18072 18.7269 7.67539 19.1933 8.3962L12.8897 8.63647C13.2854 7.90153 13.8649 7.36445 14.5999 7.05351C15.1087 6.82738 15.3348 6.47404 15.3065 5.89456C15.2641 5.11721 15.2359 4.3116 15.2076 3.53425C15.2076 3.40705 15.1935 3.29398 15.1935 3.16678C15.1793 2.84171 15.1652 2.51664 15.1652 2.2057C15.1652 2.17743 15.1652 2.14916 15.1652 2.10676V2.0785L16.4514 2.0361V2.05023C16.4514 2.0785 16.4514 2.1209 16.4514 2.14916C16.4655 2.47424 16.4796 2.78518 16.4938 3.11025C16.4938 3.23745 16.5079 3.36465 16.5079 3.49185C16.5362 4.3116 16.5644 5.15962 16.5927 5.9935C16.6068 6.4599 16.833 6.75671 17.2852 6.91218ZM12.4798 10.9261C12.4516 10.6858 12.4657 10.4173 12.4798 10.1488C12.494 10.0216 12.494 9.88023 12.494 9.75303C13.3844 9.72476 14.2889 9.69649 15.1652 9.65409L16.0839 9.62582C16.3948 9.61169 16.7058 9.59756 17.0167 9.59756C17.8789 9.56929 18.7693 9.54102 19.6456 9.49862C19.6597 9.49862 19.6597 9.49862 19.6738 9.49862C19.6738 9.49862 19.6738 9.51276 19.6738 9.52689C19.9282 10.5021 19.7586 11.5197 19.2215 12.3819C18.6845 13.244 17.8365 13.8376 16.8471 14.0355C15.8578 14.2334 14.8119 14.0072 13.978 13.4136C13.1441 12.7917 12.607 11.9155 12.4798 10.9261Z" fill="#7F858B"/>
<path d="M27.716 28.9889C26.7831 30.0065 25.709 30.8828 24.5359 31.6177V27.095C24.5359 25.9643 23.6172 25.0315 22.4724 25.0315H17.1017H15.8862V25.6392V25.0315H10.5154C9.38472 25.0315 8.4519 25.9502 8.4519 27.095V31.5612V32.805C8.4519 32.918 8.46604 33.0311 8.48017 33.13C8.96071 33.3986 9.45539 33.653 9.97833 33.865C10.9677 34.289 11.9994 34.6282 13.0877 34.8543C14.2043 35.0946 15.3632 35.2218 16.5504 35.2218C17.7377 35.2218 18.8966 35.0946 20.0132 34.8543C21.6103 34.5151 23.1226 33.9356 24.5218 33.1724C26.1047 32.2962 27.5181 31.1796 28.7336 29.851C28.5074 29.4412 28.1541 29.1161 27.716 28.9889ZM23.3204 32.2961C22.0484 32.9322 20.6916 33.3986 19.25 33.653C18.3737 33.8084 17.455 33.8932 16.5363 33.8932C15.6176 33.8932 14.6989 33.8084 13.8227 33.653C12.3528 33.3844 10.9677 32.9039 9.66739 32.2538V32.805C9.66739 33.0876 9.80873 33.342 10.0207 33.4975C10.049 33.5258 10.0773 33.5399 10.1197 33.554C10.0914 33.5399 10.049 33.5116 10.0207 33.4975C9.80873 33.342 9.66739 33.0876 9.66739 32.805V32.2538C9.45539 32.1548 9.25752 32.0417 9.05965 31.9287C9.25752 32.0417 9.46952 32.1548 9.66739 32.2538V27.095C9.66739 26.6286 10.049 26.247 10.5154 26.247H22.4724C22.9388 26.247 23.3204 26.6286 23.3204 27.095V32.2961Z" fill="#7F858B"/>
<path d="M19.5467 27.2786C18.1475 27.2786 17.0027 28.4234 17.0027 29.8226C17.0027 31.2218 18.1475 32.3667 19.5467 32.3667C20.946 32.3667 22.0908 31.2218 22.0908 29.8226C22.0908 28.4234 20.9601 27.2786 19.5467 27.2786ZM19.5467 31.1653C18.8118 31.1653 18.204 30.5717 18.204 29.8226C18.204 29.0877 18.7976 28.4799 19.5467 28.4799C20.2817 28.4799 20.8894 29.0735 20.8894 29.8226C20.8894 30.5717 20.2817 31.1653 19.5467 31.1653Z" fill="#7F858B"/>
<path d="M17.1015 21.1023C18.2181 20.8337 19.052 19.8161 19.052 18.6289C19.052 17.2297 17.9071 16.0848 16.5079 16.0848C15.1087 16.0848 13.9639 17.2297 13.9639 18.6289C13.9639 19.8302 14.7977 20.8337 15.9143 21.1023V25.0314H17.1298V21.1023H17.1015ZM15.1652 18.6289C15.1652 17.8939 15.7588 17.2862 16.5079 17.2862C17.2429 17.2862 17.8506 17.8798 17.8506 18.6289C17.8506 19.3638 17.2429 19.9716 16.5079 19.9716C15.7588 19.9716 15.1652 19.3638 15.1652 18.6289Z" fill="#7F858B"/>
<path d="M13.4551 27.2786C12.0558 27.2786 10.911 28.4234 10.911 29.8226C10.911 31.2218 12.0558 32.3667 13.4551 32.3667C14.8684 32.3667 15.9991 31.2218 15.9991 29.8226C15.9991 28.4234 14.8543 27.2786 13.4551 27.2786ZM13.4551 31.1653C12.7201 31.1653 12.1124 30.5717 12.1124 29.8226C12.1124 29.0877 12.7201 28.4799 13.4551 28.4799C14.19 28.4799 14.7977 29.0735 14.7977 29.8226C14.7836 30.5717 14.19 31.1653 13.4551 31.1653Z" fill="#7F858B"/>
<path d="M4.94678 20.7772C4.97505 20.7772 5.00331 20.7772 5.01745 20.7772C5.89373 20.7631 6.69934 20.4098 7.30709 19.7738C7.91483 19.1377 8.2399 18.3039 8.22577 17.4276C8.21163 16.5654 7.84416 15.7457 7.20815 15.1379C6.57214 14.5302 5.73826 14.2051 4.86198 14.2334C3.05288 14.2758 1.62539 15.7881 1.66779 17.583C1.73846 19.3639 3.18008 20.7772 4.94678 20.7772ZM7.13748 17.3569C7.17988 17.9505 6.98201 18.5159 6.60041 18.9399C6.2188 19.378 5.66759 19.6465 5.10225 19.6748C3.90089 19.7455 2.85501 18.8409 2.78434 17.6396C2.74194 17.0318 2.95395 16.4382 3.37795 16.0001C3.78783 15.5619 4.35317 15.3217 4.96091 15.3217H4.97505C6.11987 15.3217 7.06681 16.2121 7.13748 17.3569Z" fill="#7F858B"/>
<path d="M12.0418 18.0777C11.8157 17.9363 11.6461 17.8374 11.4906 17.7526C11.3775 17.6961 11.3493 17.5971 11.3351 17.5123C11.3351 17.4417 11.3493 17.3569 11.4482 17.3003L11.4765 17.2862C11.6178 17.2014 11.7591 17.1166 11.9005 17.0459C12.5506 16.7208 12.7485 16.0424 12.6213 15.5478C12.5506 15.2792 12.4517 14.9824 12.3103 14.6149C12.1266 14.1203 11.5471 13.7669 11.0101 13.8093C10.7981 13.8235 10.5719 13.8517 10.374 13.88C10.2327 13.8941 10.1479 13.8093 10.1196 13.7811C10.0914 13.7528 10.0348 13.6539 10.0914 13.5267C10.162 13.357 10.2468 13.1733 10.3316 12.9896C10.586 12.4384 10.4447 11.7882 9.9783 11.4066C9.73803 11.2229 9.48363 11.0391 9.21509 10.8554C8.76282 10.5586 8.12681 10.601 7.7028 10.9543C7.58973 11.0533 7.46253 11.1663 7.34946 11.2653L7.20812 11.3925C7.10919 11.4773 7.03852 11.4773 6.95372 11.4632C6.84065 11.4349 6.78412 11.3783 6.76998 11.2653C6.72758 11.0815 6.69931 10.8978 6.65691 10.7141C6.54384 10.1911 6.19051 9.80952 5.70996 9.68232C5.58276 9.65405 5.45556 9.62579 5.31422 9.62579C5.13049 9.62579 4.93262 9.62579 4.74888 9.62579H4.59341C4.50861 9.62579 4.42381 9.63992 4.33901 9.65405C5.90783 7.54815 8.01374 5.85212 10.4447 4.77797C10.473 4.29743 10.4023 3.87342 9.8935 3.67555C9.8511 3.66142 9.8087 3.64729 9.75217 3.61902C6.75585 4.96171 4.24007 7.16655 2.51578 9.92259C2.33204 10.2053 2.16244 10.5021 2.00697 10.7847C1.95043 10.8837 1.8939 10.9967 1.83736 11.1098C1.75256 11.2653 1.66776 11.4349 1.59709 11.6045C1.54056 11.7176 1.49816 11.8306 1.44162 11.9437C1.28616 12.297 1.14482 12.6504 1.00348 13.0037C0.918682 13.2298 0.848014 13.456 0.763213 13.6821C0.706679 13.8376 0.664278 13.9931 0.621877 14.1627C0.551209 14.4029 0.480542 14.6573 0.424007 14.9117C0.212004 15.788 0.0848014 16.7067 0.0282671 17.6254C0 17.9787 0 18.3321 0 18.6854C0 19.1094 0.0141336 19.5193 0.0424007 19.9292C0.0565343 20.0564 0.0565343 20.1977 0.0706679 20.3249C0.098935 20.6358 0.141336 20.9326 0.183736 21.2295C0.183736 21.2719 0.19787 21.3143 0.19787 21.3567C0.254404 21.71 0.325072 22.0633 0.409874 22.4167C0.424007 22.5015 0.452274 22.5863 0.466408 22.6711C0.480541 22.7559 0.508809 22.8407 0.537076 22.9255C0.607744 23.2082 0.692545 23.505 0.79148 23.7876C0.848014 23.9572 0.904549 24.1268 0.961083 24.2964C1.9787 27.1231 3.75953 29.5824 6.03504 31.448C6.27531 31.6459 6.52971 31.8438 6.78412 32.0275C7.26466 31.9003 7.47666 31.4763 7.56146 30.9392C7.44839 30.8544 7.32119 30.7696 7.20812 30.6707C5.00328 28.9605 3.26486 26.6426 2.26137 23.9855C2.34617 23.9148 2.43097 23.83 2.51578 23.7594C2.57231 23.7028 2.64298 23.6463 2.69951 23.5898C2.79845 23.505 2.91152 23.5191 2.95392 23.5332C2.99632 23.5474 3.09525 23.5898 3.12352 23.7311C3.16592 23.9148 3.19419 24.0986 3.23659 24.2823C3.37792 24.9466 3.90087 25.3706 4.57928 25.3706C4.81955 25.3706 5.05982 25.3706 5.30009 25.3706C5.9361 25.3565 6.47318 24.9183 6.58625 24.2823C6.62865 24.0703 6.67105 23.8866 6.71345 23.717C6.74171 23.5898 6.84065 23.5474 6.88305 23.5332C6.92545 23.5191 7.02439 23.505 7.12332 23.5898C7.26466 23.7028 7.42013 23.8442 7.56146 23.9855C8.01374 24.4095 8.69215 24.466 9.20096 24.1127C9.42709 23.9572 9.6391 23.8018 9.8511 23.6463C10.3175 23.293 10.4871 22.7983 10.3458 22.2612C10.2751 22.0209 10.1762 21.8089 10.0772 21.5969L10.0348 21.498C9.99244 21.4132 10.0066 21.3001 10.0631 21.2153C10.0914 21.1729 10.162 21.1022 10.2751 21.1022C10.4447 21.1164 10.6284 21.1305 10.8263 21.1588C11.5189 21.2577 12.0842 20.9044 12.3103 20.2542C12.3527 20.127 12.3951 19.9857 12.4375 19.8444C12.4658 19.7454 12.4941 19.6465 12.5365 19.5476C12.7909 19.0105 12.5647 18.4027 12.0418 18.0777ZM2.55818 12.6928C2.99632 12.7917 3.47686 12.7069 3.8302 12.4242C4.14114 12.184 4.33901 11.8589 4.40968 11.4773C4.43794 11.3359 4.46621 11.1946 4.49448 11.0533L4.52274 10.9261C4.52274 10.8978 4.53688 10.8837 4.53688 10.8837C4.53688 10.8837 4.55101 10.8695 4.57928 10.8695C4.81955 10.8695 5.05982 10.8695 5.28596 10.8695C5.32836 10.8695 5.34249 10.8695 5.35662 10.9402C5.39903 11.1239 5.42729 11.3077 5.46969 11.4914C5.62516 12.2122 6.21877 12.7069 6.95372 12.721C7.34946 12.721 7.7028 12.5938 7.98547 12.3394C8.14094 12.1981 8.29641 12.0568 8.45188 11.9296C8.46601 11.9154 8.48014 11.9154 8.48014 11.9154C8.48014 11.9154 8.49428 11.9154 8.50841 11.9296C8.69215 12.0568 8.89002 12.1981 9.11616 12.3677C9.13029 12.3818 9.14442 12.396 9.11616 12.4525L9.05962 12.5938C8.97482 12.7776 8.89002 12.9613 8.83348 13.1592C8.57908 13.9224 8.97482 14.7704 9.73803 15.0531C9.83697 15.0955 9.9359 15.1237 10.0207 15.1379C10.0914 15.152 10.162 15.152 10.2186 15.1661C10.2468 15.1661 10.261 15.1661 10.2892 15.1661H10.3316L10.5578 15.1379C10.6991 15.1237 10.8546 15.1096 11.0101 15.0813C11.0383 15.0813 11.0525 15.0813 11.0666 15.0813C11.0949 15.0813 11.109 15.0813 11.109 15.0813C11.109 15.0813 11.1231 15.0955 11.1514 15.1661C11.1797 15.2509 11.2079 15.3499 11.2362 15.4347C11.2786 15.5619 11.321 15.6891 11.3634 15.8163C11.3775 15.8587 11.3775 15.8587 11.3351 15.887C11.2645 15.9294 11.1938 15.9718 11.1373 16C10.9959 16.0848 10.8405 16.1696 10.685 16.2686C10.2892 16.5512 10.049 17.0035 10.049 17.5123C10.049 18.007 10.2892 18.4734 10.685 18.7561C10.8405 18.8691 10.9959 18.9539 11.1514 19.0387C11.2221 19.0811 11.2927 19.1235 11.3634 19.1659C11.3775 19.1801 11.3775 19.1801 11.3775 19.1942C11.3069 19.4204 11.2362 19.6748 11.1373 19.9574C10.9394 19.9433 10.7415 19.9292 10.5436 19.9009C9.99244 19.8302 9.5119 20.014 9.17269 20.4097C8.77695 20.862 8.67801 21.3991 8.89002 21.9644C8.94655 22.0916 9.00309 22.2188 9.05962 22.346C9.10202 22.4308 9.13029 22.5156 9.17269 22.6004C9.18682 22.6145 9.18682 22.6287 9.18682 22.6287C9.18682 22.6287 9.17269 22.6428 9.15856 22.6569C8.97482 22.7983 8.79108 22.9255 8.59321 23.0668C8.55081 23.0951 8.53668 23.0951 8.53668 23.0951C8.53668 23.0951 8.50841 23.0809 8.46601 23.0527L8.38121 22.982C8.23987 22.8548 8.09854 22.7276 7.94307 22.6004C7.5756 22.3036 7.09505 22.2047 6.62865 22.3319C6.16224 22.4449 5.79477 22.7559 5.62516 23.194C5.55449 23.3778 5.51209 23.5615 5.46969 23.7452C5.45556 23.8159 5.44143 23.8866 5.41316 23.9572C5.39902 23.9855 5.39903 24.0138 5.39903 24.0562C5.39903 24.0844 5.38489 24.1127 5.38489 24.1268C5.38489 24.1268 5.38489 24.141 5.35662 24.141C5.10222 24.141 4.86195 24.141 4.60754 24.141C4.59341 24.141 4.56514 24.1268 4.56514 24.1127C4.53688 23.9996 4.52274 23.9007 4.49448 23.7876C4.48034 23.7028 4.45208 23.6039 4.43794 23.5191C4.31074 22.9537 3.97153 22.558 3.43446 22.3743C3.25072 22.3177 3.08112 22.2895 2.91152 22.2895C2.54404 22.2895 2.1907 22.4308 1.8939 22.6993C1.54056 21.4273 1.35682 20.0846 1.35682 18.6995C1.32856 16.5654 1.7667 14.5301 2.55818 12.6928Z" fill="#7F858B"/>
<path d="M41.1145 23.1517C40.8884 22.9821 40.7188 22.6853 40.7188 22.3602C40.7188 21.8232 41.1569 21.3992 41.694 21.3992C41.9625 21.3992 42.1604 21.4981 42.2876 21.5829C43.0084 22.1058 43.7999 22.4309 44.7185 22.4309C45.5666 22.4309 46.0895 22.0917 46.0895 21.5405V21.5122C46.0895 20.9893 45.7644 20.7066 44.1815 20.3109C42.2734 19.8162 41.0297 19.2933 41.0297 17.4135V17.3852C41.0297 15.6609 42.4148 14.5161 44.3511 14.5161C45.51 14.5161 46.5135 14.8129 47.3615 15.3641C47.5877 15.5055 47.8279 15.7881 47.8279 16.198C47.8279 16.7351 47.3898 17.1591 46.8527 17.1591C46.6548 17.1591 46.4852 17.1026 46.3298 17.0036C45.6372 16.5937 44.9871 16.3676 44.3369 16.3676C43.5313 16.3676 43.1215 16.7351 43.1215 17.2015V17.2298C43.1215 17.8516 43.5313 18.0636 45.1708 18.4735C47.093 18.9823 48.1813 19.6607 48.1813 21.3285V21.3568C48.1813 23.2365 46.7397 24.2965 44.6903 24.2965C43.4324 24.2824 42.1745 23.9149 41.1145 23.1517Z" fill="#7F858B"/>
<path d="M55.7002 16.5796H53.6933C53.1703 16.5796 52.7322 16.1415 52.7322 15.6186C52.7322 15.0956 53.1703 14.6575 53.6933 14.6575H59.799C60.3219 14.6575 60.76 15.0956 60.76 15.6186C60.76 16.1415 60.3219 16.5796 59.799 16.5796H57.792V23.1941C57.792 23.7736 57.3256 24.24 56.7461 24.24C56.1666 24.24 55.7002 23.7736 55.7002 23.1941V16.5796Z" fill="#7F858B"/>
<path d="M65.9896 23.1093V15.7034C65.9896 15.1239 66.456 14.6575 67.0355 14.6575H72.3073C72.8161 14.6575 73.2401 15.0815 73.2401 15.5903C73.2401 16.0991 72.8161 16.509 72.3073 16.509H68.0673V18.4311H71.6855C72.1943 18.4311 72.6183 18.8551 72.6183 19.3639C72.6183 19.8728 72.1943 20.2826 71.6855 20.2826H68.0673V22.2755H72.3639C72.8727 22.2755 73.2967 22.6995 73.2967 23.2083C73.2967 23.7171 72.8727 24.127 72.3639 24.127H67.0355C66.456 24.1552 65.9896 23.6888 65.9896 23.1093Z" fill="#7F858B"/>
<path d="M78.7805 15.6467C78.7805 15.0672 79.2469 14.6008 79.8264 14.6008H80.0525C80.5048 14.6008 80.8157 14.827 80.9995 15.1379L83.5294 19.2508L86.0734 15.1238C86.2854 14.7704 86.5822 14.6008 87.0062 14.6008H87.2324C87.8119 14.6008 88.2783 15.0672 88.2783 15.6467V23.194C88.2783 23.7735 87.8119 24.2399 87.2324 24.2399C86.667 24.2399 86.2006 23.7594 86.2006 23.194V18.4593L84.3633 21.286C84.1513 21.6111 83.8686 21.809 83.5011 21.809C83.1337 21.809 82.851 21.6111 82.639 21.286L80.8299 18.5017V23.2223C80.8299 23.7877 80.3635 24.2399 79.7981 24.2399C79.2328 24.2399 78.7805 23.7877 78.7805 23.2223V15.6467Z" fill="#7F858B"/>
<path d="M93.8469 19.4344V19.4062C93.8469 16.7066 95.8822 14.4877 98.7937 14.4877C100.221 14.4877 101.182 14.8693 101.974 15.4488C102.186 15.6184 102.384 15.9152 102.384 16.2826C102.384 16.848 101.917 17.3003 101.352 17.3003C101.069 17.3003 100.871 17.1872 100.73 17.1024C100.15 16.6642 99.5286 16.424 98.7937 16.424C97.1966 16.424 96.0376 17.7525 96.0376 19.3779V19.4062C96.0376 21.0315 97.1683 22.3883 98.7937 22.3883C99.67 22.3883 100.264 22.1198 100.857 21.6393C101.027 21.4979 101.239 21.4131 101.479 21.4131C102.002 21.4131 102.454 21.8513 102.454 22.3742C102.454 22.6993 102.285 22.9537 102.101 23.1233C101.253 23.8724 100.235 24.3246 98.723 24.3246C95.9246 24.3105 93.8469 22.1622 93.8469 19.4344Z" fill="#7F858B"/>
<path d="M107.458 22.8125L110.765 15.3358C110.991 14.827 111.415 14.502 111.98 14.502H112.107C112.673 14.502 113.083 14.8129 113.309 15.3358L116.616 22.8125C116.687 22.968 116.729 23.0952 116.729 23.2365C116.729 23.7877 116.291 24.24 115.74 24.24C115.245 24.24 114.92 23.9573 114.736 23.5192L114.1 22.021H109.917L109.252 23.5757C109.083 23.9856 108.73 24.2259 108.291 24.2259C107.754 24.2259 107.33 23.7877 107.33 23.2506C107.344 23.1093 107.387 22.9538 107.458 22.8125ZM113.337 20.1836L112.023 17.046L110.708 20.1836H113.337Z" fill="#7F858B"/>
<path d="M122.086 15.7034C122.086 15.1239 122.552 14.6575 123.132 14.6575H128.446C128.969 14.6575 129.393 15.0815 129.393 15.6044C129.393 16.1274 128.969 16.5514 128.446 16.5514H124.178V18.5725H127.838C128.361 18.5725 128.785 18.9965 128.785 19.5194C128.785 20.0424 128.361 20.4664 127.838 20.4664H124.178V23.1941C124.178 23.7736 123.711 24.24 123.132 24.24C122.552 24.24 122.086 23.7736 122.086 23.1941V15.7034Z" fill="#7F858B"/>
<path d="M134.693 23.1093V15.7034C134.693 15.1239 135.159 14.6575 135.739 14.6575H141.011C141.519 14.6575 141.943 15.0815 141.943 15.5903C141.943 16.0991 141.519 16.509 141.011 16.509H136.771V18.4311H140.389C140.898 18.4311 141.322 18.8551 141.322 19.3639C141.322 19.8728 140.898 20.2826 140.389 20.2826H136.771V22.2755H141.067C141.576 22.2755 142 22.6995 142 23.2083C142 23.7171 141.576 24.127 141.067 24.127H135.739C135.159 24.1552 134.693 23.6888 134.693 23.1093Z" fill="#7F858B"/>
</svg>
