<svg width="218" height="50" viewBox="0 0 218 50" fill="none" xmlns="http://www.w3.org/2000/svg">
<g clip-path="url(#clip0)">
<path d="M46.5089 23.3082C46.3093 21.7345 45.9502 20.2205 45.4515 18.7663C45.2918 18.2683 45.0923 17.7903 44.8928 17.3321C44.773 17.0332 44.6334 16.7544 44.5136 16.4755C44.0348 16.0571 43.3565 15.9177 42.5584 16.0771C42.4386 16.097 42.3389 16.1169 42.2192 16.1369C41.7004 16.2364 41.2016 16.3361 40.6829 16.4555C40.3237 16.5353 39.9446 16.6149 39.5855 16.6747C39.5655 16.6747 39.5655 16.6747 39.5455 16.6747L39.5256 16.6348C39.4657 16.3161 39.4059 16.0173 39.346 15.7185C39.2063 15.0213 39.0468 14.2843 38.8872 13.5671C38.6278 12.3719 37.5902 11.6946 36.3732 11.9137C35.9143 11.9933 35.4753 12.093 35.0364 12.1925H35.0164C33.6796 12.4714 33.0012 13.4874 33.2606 14.8221C33.3804 15.4595 33.52 16.1169 33.6597 16.7544C33.7395 17.1129 33.7993 17.4715 33.8791 17.83C33.8791 17.8499 33.8791 17.8499 33.8791 17.8699L33.8392 17.8898C33.52 17.9496 33.2207 18.0094 32.9014 18.089C32.2031 18.2285 31.4848 18.3679 30.7865 18.5273C29.5095 18.8062 28.8511 19.8221 29.0906 21.0971C29.1903 21.5752 29.2702 22.0333 29.3699 22.4915C29.6492 23.7465 30.6868 24.4238 31.9438 24.1648C32.642 24.0254 33.3603 23.886 34.0587 23.7265C34.3579 23.6668 34.6573 23.607 34.9565 23.5472L35.0364 23.5273V23.5672C35.0962 23.886 35.1761 24.2046 35.2359 24.5233C35.3756 25.2405 35.5352 25.9775 35.6947 26.6947C35.9342 27.7106 36.7522 28.368 37.7498 28.368C37.8896 28.368 38.0492 28.3481 38.1888 28.3282C38.5679 28.2486 38.9469 28.1688 39.3061 28.109L39.5455 28.0693C40.9023 27.7904 41.5807 26.7545 41.3014 25.3998C41.1816 24.8022 41.0619 24.1847 40.9222 23.5871C40.8425 23.1887 40.7627 22.7903 40.6829 22.3919V22.372L41.6206 22.1728C42.299 22.0333 42.9773 21.8939 43.6557 21.7544C43.8552 21.7146 44.0547 21.6548 44.2144 21.5752C44.3341 22.0931 44.4339 22.611 44.5136 23.1289C44.6733 24.1847 44.7531 25.2804 44.7531 26.376C44.7531 27.9298 44.5935 29.4238 44.2743 30.878C44.0547 30.7585 43.7955 30.6788 43.516 30.5991C41.4011 30.1211 39.3061 29.643 37.1912 29.1648L33.5598 28.3481C33.4003 28.3082 33.2406 28.2685 33.1009 28.2485C32.7219 28.1688 32.3428 28.0693 31.9637 28.0095C30.7267 27.7904 29.6293 28.5274 29.3699 29.7624C29.2702 30.2406 29.1903 30.6589 29.1105 31.0972C28.8911 32.3721 29.6094 33.4877 30.8463 33.7665C34.5575 34.6231 38.3285 35.4797 41.9797 36.2964L42.2791 36.3562C42.0197 36.8541 41.7203 37.3522 41.4211 37.8303C41.3213 37.9697 41.2216 38.1291 41.1418 38.2686C41.5608 38.7466 42.1593 39.0455 42.7978 39.1649C42.8776 39.0455 42.9574 38.926 43.0372 38.8064C43.6358 37.8702 44.1745 36.8741 44.6334 35.8581C44.8928 35.3004 45.1122 34.7028 45.3318 34.125C46.1897 31.6948 46.6486 29.105 46.6486 26.396C46.6885 25.3003 46.6286 24.3043 46.5089 23.3082ZM43.7754 19.7424C43.7356 19.8819 43.5759 19.9615 43.2966 20.0213C42.6182 20.1607 41.9598 20.3002 41.2815 20.4397C40.7428 20.5591 40.2039 20.6588 39.6652 20.7783C38.8273 20.9575 38.6078 21.2963 38.7675 22.1528C38.8672 22.6707 38.9869 23.1887 39.0867 23.7066C39.2264 24.3441 39.346 25.0014 39.4858 25.6588C39.5855 26.1569 39.5256 26.2564 39.0268 26.3561L38.9071 26.376C38.6078 26.4357 38.2886 26.5154 37.9893 26.5553C37.5902 26.6349 37.4506 26.5553 37.3708 26.1569C37.2311 25.4796 37.0914 24.8022 36.9517 24.1249C36.852 23.607 36.7323 23.0691 36.6326 22.5313C36.5128 21.9138 36.1936 21.6149 35.6748 21.6149C35.5751 21.6149 35.4554 21.6349 35.3356 21.6548C34.6173 21.7943 33.899 21.9536 33.1808 22.0931C32.7418 22.1728 32.3028 22.2723 31.864 22.372C31.4051 22.4715 31.1457 22.2923 31.0458 21.8341V21.8141C30.9661 21.4755 30.9062 21.1369 30.8463 20.8181C30.7665 20.4197 30.8463 20.2803 31.2454 20.2006C31.6844 20.101 32.1234 20.0213 32.5622 19.9218L34.8168 19.4636C35.8145 19.2644 36.014 18.9655 35.7945 17.9496L35.5352 16.7345C35.3955 16.0173 35.2358 15.32 35.0962 14.6029C34.9765 14.065 35.0563 13.9655 35.595 13.846L35.8544 13.7862C36.0938 13.7264 36.3532 13.6866 36.5926 13.6269C36.9917 13.5472 37.1313 13.6468 37.2111 14.0253C37.3708 14.8221 37.5503 15.6189 37.71 16.4157L37.9694 17.6707C38.1489 18.5073 38.528 18.7663 39.3859 18.5871C39.9845 18.4675 40.603 18.348 41.2016 18.2086C41.7603 18.089 42.299 17.9895 42.8576 17.8699C42.9375 17.8499 42.9974 17.8499 43.0571 17.83C43.3764 17.7903 43.4762 17.9097 43.556 18.3281C43.6158 18.6469 43.6956 18.9655 43.7555 19.2843C43.7955 19.5033 43.8154 19.6429 43.7754 19.7424ZM42.4786 38.1091C42.3987 38.0494 42.299 38.0096 42.2192 37.9697C42.299 38.0096 42.3987 38.0494 42.4786 38.1091ZM42.7179 38.2686C42.7778 38.3283 42.8377 38.3681 42.8776 38.4279C42.8178 38.3681 42.7579 38.3283 42.7179 38.2686ZM43.7356 33.0295C43.556 33.5474 43.3764 34.0653 43.1569 34.5832C43.137 34.5832 43.117 34.5832 43.0971 34.5832C39.4458 33.7665 35.635 32.89 31.425 31.9338C31.1057 31.8541 31.0259 31.7346 31.0858 31.396C31.1656 30.9975 31.2454 30.5592 31.3452 30.141C31.425 29.8422 31.4649 29.7624 31.6245 29.7624C31.6844 29.7624 31.7641 29.7824 31.8839 29.8023C35.5152 30.619 39.4259 31.5155 43.4163 32.4319C43.516 32.4517 43.6158 32.5115 43.6956 32.5713C43.6956 32.5713 43.6956 32.5713 43.7156 32.5713C43.7356 32.6708 43.7555 32.8303 43.7356 33.0295Z" fill="#00BB8D"/>
<path d="M24.7609 3.06898C24.7609 2.9893 24.7609 2.90961 24.7409 2.81001V2.75025C25.559 2.57097 25.6986 2.25224 25.6587 1.19644V1.09685C25.6188 0.20042 25.3794 -0.0187056 24.4616 0.00121503C22.9452 0.0609767 21.4488 0.120739 19.9324 0.16058C18.9947 0.20042 18.7751 0.439467 18.8151 1.37573C18.855 2.45144 18.9947 2.73033 19.8526 2.90961C19.8526 2.92953 19.8526 2.94945 19.8526 2.96938C19.8526 3.06898 19.8526 3.16858 19.8725 3.26818C19.8925 3.68651 19.9125 4.10485 19.9125 4.52318C19.9125 4.72239 19.9324 4.94151 19.9324 5.16064C19.9723 6.21642 20.0122 7.27222 20.0721 8.328C20.0721 8.34792 20.0721 8.36784 20.0721 8.38776C20.0721 8.44752 20.0721 8.46744 20.0721 8.46744C20.0721 8.46744 20.0321 8.50729 19.9125 8.54713C16.8199 9.98141 15.2835 13.4874 16.341 16.7145C17.2587 19.5233 19.8925 21.3759 22.7657 21.3759C23.1846 21.3759 23.6235 21.3361 24.0426 21.2565C26.8958 20.6986 29.1703 18.2285 29.4297 15.3998C29.7289 12.2723 27.9931 9.44356 25.12 8.38776C24.9803 8.34792 24.9604 8.30808 24.9604 8.30808C24.9604 8.30808 24.9404 8.26824 24.9404 8.1288C24.9205 7.07301 24.8805 6.01722 24.8407 4.96143C30.0482 5.32 34.737 7.53118 38.2885 10.9376C38.8472 11.1567 39.3859 11.1766 39.7849 10.4595C39.8647 10.2802 39.9046 10.1009 39.9246 9.92165C35.9741 5.97738 30.6668 3.40763 24.7609 3.06898ZM24.4017 9.74236C25.5389 10.1209 26.4369 10.8181 27.0953 11.834L18.1966 12.1726C18.7552 11.1368 19.5732 10.3798 20.6108 9.94157C21.3291 9.62284 21.6483 9.12482 21.6084 8.30808C21.5485 7.21246 21.5087 6.07698 21.4687 4.98135C21.4687 4.80207 21.4488 4.6427 21.4488 4.46342C21.4288 4.00525 21.4089 3.54707 21.4089 3.10882C21.4089 3.06898 21.4089 3.02914 21.4089 2.96938V2.92953L23.2245 2.86977V2.88969C23.2245 2.92953 23.2245 2.9893 23.2245 3.02914C23.2445 3.48731 23.2644 3.92556 23.2843 4.38374C23.2843 4.56302 23.3044 4.74231 23.3044 4.92159C23.3442 6.07698 23.3842 7.27222 23.424 8.44752C23.444 9.10491 23.7633 9.52324 24.4017 9.74236ZM17.6179 15.3998C17.578 15.0611 17.598 14.6826 17.6179 14.3042C17.6379 14.1249 17.6379 13.9257 17.6379 13.7464C18.8949 13.7066 20.1718 13.6667 21.4089 13.6069L22.7058 13.5672C23.1447 13.5472 23.5837 13.5273 24.0226 13.5273C25.2397 13.4874 26.4967 13.4476 27.7337 13.3878C27.7537 13.3878 27.7537 13.3878 27.7736 13.3878C27.7736 13.3878 27.7736 13.4077 27.7736 13.4276C28.1327 14.8022 27.8934 16.2365 27.1351 17.4516C26.377 18.6668 25.1799 19.5034 23.7832 19.7823C22.3865 20.0613 20.9101 19.7425 19.7329 18.9058C18.5557 18.0293 17.7975 16.7942 17.6179 15.3998Z" fill="#FF6600"/>
<path d="M39.1256 40.8578C37.8088 42.2921 36.2924 43.5271 34.6364 44.563V38.1884C34.6364 36.5948 33.3395 35.28 31.7234 35.28H24.1415H22.4255V36.1366V35.28H14.8437C13.2475 35.28 11.9307 36.5748 11.9307 38.1884V44.4833V46.2363C11.9307 46.3957 11.9507 46.555 11.9706 46.6945C12.649 47.073 13.3473 47.4315 14.0856 47.7304C15.4822 48.328 16.9387 48.8061 18.4751 49.1248C20.0513 49.4634 21.6873 49.6428 23.3634 49.6428C25.0394 49.6428 26.6754 49.4634 28.2516 49.1248C30.5062 48.6467 32.6411 47.8299 34.6164 46.7542C36.8511 45.5191 38.8463 43.9455 40.5622 42.0729C40.243 41.4953 39.7442 41.0371 39.1256 40.8578ZM32.9205 45.5191C31.1248 46.4156 29.2094 47.073 27.1742 47.4315C25.9372 47.6507 24.6403 47.7702 23.3434 47.7702C22.0465 47.7702 20.7496 47.6507 19.5126 47.4315C17.4375 47.0531 15.4822 46.3757 13.6466 45.4595V46.2363C13.6466 46.6347 13.8461 46.9933 14.1454 47.2124C14.1853 47.2523 14.2252 47.2722 14.2851 47.2921C14.2451 47.2722 14.1853 47.2323 14.1454 47.2124C13.8461 46.9933 13.6466 46.6347 13.6466 46.2363V45.4595C13.3473 45.3199 13.0679 45.1606 12.7886 45.0013C13.0679 45.1606 13.3673 45.3199 13.6466 45.4595V38.1884C13.6466 37.5311 14.1853 36.9932 14.8437 36.9932H31.7234C32.3818 36.9932 32.9205 37.5311 32.9205 38.1884V45.5191Z" fill="#00CFF5"/>
<path d="M27.5929 38.4474C25.6176 38.4474 24.0015 40.061 24.0015 42.0332C24.0015 44.0052 25.6176 45.6189 27.5929 45.6189C29.5682 45.6189 31.1843 44.0052 31.1843 42.0332C31.1843 40.061 29.5881 38.4474 27.5929 38.4474ZM27.5929 43.9256C26.5553 43.9256 25.6973 43.0889 25.6973 42.0332C25.6973 40.9973 26.5354 40.1407 27.5929 40.1407C28.6304 40.1407 29.4884 40.9774 29.4884 42.0332C29.4884 43.0889 28.6304 43.9256 27.5929 43.9256Z" fill="#00CFF5"/>
<path d="M24.1418 29.7421C25.7181 29.3637 26.8953 27.9294 26.8953 26.2561C26.8953 24.2839 25.2791 22.6704 23.3039 22.6704C21.3286 22.6704 19.7124 24.2839 19.7124 26.2561C19.7124 27.9493 20.8896 29.3637 22.4659 29.7421V35.2801H24.1818V29.7421H24.1418ZM21.4084 26.2561C21.4084 25.2202 22.2464 24.3636 23.3039 24.3636C24.3414 24.3636 25.1993 25.2003 25.1993 26.2561C25.1993 27.2919 24.3414 28.1485 23.3039 28.1485C22.2464 28.1485 21.4084 27.2919 21.4084 26.2561Z" fill="#00CFF5"/>
<path d="M18.9947 38.4474C17.0194 38.4474 15.4033 40.061 15.4033 42.0332C15.4033 44.0052 17.0194 45.6189 18.9947 45.6189C20.9899 45.6189 22.5861 44.0052 22.5861 42.0332C22.5861 40.061 20.97 38.4474 18.9947 38.4474ZM18.9947 43.9256C17.9573 43.9256 17.0993 43.0889 17.0993 42.0332C17.0993 40.9973 17.9573 40.1407 18.9947 40.1407C20.0323 40.1407 20.8902 40.9774 20.8902 42.0332C20.8702 43.0889 20.0323 43.9256 18.9947 43.9256Z" fill="#00CFF5"/>
<path d="M6.98326 29.2845C7.02316 29.2845 7.06307 29.2845 7.08302 29.2845C8.32007 29.2647 9.45734 28.7666 10.3153 27.8702C11.1732 26.9737 11.6321 25.7984 11.6122 24.5634C11.5923 23.3482 11.0735 22.1928 10.1756 21.3362C9.27777 20.4797 8.10059 20.0215 6.86355 20.0614C4.30965 20.1211 2.29447 22.2526 2.35433 24.7825C2.4541 27.2925 4.48922 29.2845 6.98326 29.2845ZM10.0759 24.4637C10.1357 25.3005 9.85639 26.0973 9.31768 26.6949C8.77897 27.3124 8.00083 27.6909 7.20273 27.7307C5.5068 27.8303 4.03032 26.5555 3.93056 24.8622C3.8707 24.0056 4.16999 23.169 4.76855 22.5514C5.34718 21.9339 6.14527 21.5952 7.00321 21.5952H7.02316C8.6393 21.5952 9.97611 22.8502 10.0759 24.4637Z" fill="#FFAA12"/>
<path d="M16.9993 25.4796C16.6801 25.2804 16.4407 25.141 16.2213 25.0214C16.0616 24.9418 16.0217 24.8024 16.0017 24.6828C16.0017 24.5833 16.0217 24.4637 16.1614 24.3841L16.2012 24.3642C16.4008 24.2446 16.6003 24.1251 16.7998 24.0254C17.7176 23.5674 17.9969 22.6111 17.8174 21.9139C17.7176 21.5354 17.578 21.1171 17.3784 20.5992C17.1191 19.9019 16.301 19.4039 15.5428 19.4637C15.2436 19.4836 14.9243 19.5234 14.645 19.5633C14.4455 19.5831 14.3257 19.4637 14.2858 19.4238C14.246 19.3839 14.1662 19.2445 14.246 19.0653C14.3457 18.8262 14.4654 18.5672 14.5851 18.3083C14.9442 17.5313 14.7447 16.6151 14.0863 16.0771C13.7471 15.8183 13.388 15.5593 13.0089 15.3003C12.3704 14.8819 11.4726 14.9417 10.874 15.4397C10.7144 15.5792 10.5348 15.7385 10.3752 15.8779L10.1757 16.0572C10.036 16.1768 9.93624 16.1768 9.81653 16.1569C9.65691 16.117 9.5771 16.0374 9.55715 15.8779C9.49729 15.6191 9.45739 15.3601 9.39753 15.1011C9.23791 14.3641 8.73911 13.8261 8.06072 13.6469C7.88115 13.607 7.70158 13.5672 7.50206 13.5672C7.24268 13.5672 6.96335 13.5672 6.70397 13.5672H6.4845C6.36479 13.5672 6.24507 13.5871 6.12535 13.607C8.34005 10.6389 11.313 8.2484 14.7447 6.73444C14.7847 6.05713 14.6848 5.45952 13.9667 5.18063C13.9068 5.16071 13.8469 5.14079 13.7671 5.10095C9.5372 6.99341 5.98568 10.101 3.5515 13.9855C3.29212 14.3839 3.0527 14.8022 2.83322 15.2006C2.75341 15.3401 2.67361 15.4995 2.5938 15.6588C2.47408 15.8779 2.35437 16.117 2.25461 16.3561C2.1748 16.5154 2.11494 16.6747 2.03514 16.8342C1.81566 17.3321 1.61614 17.8302 1.41662 18.3281C1.2969 18.6469 1.19713 18.9656 1.07742 19.2844C0.997614 19.5035 0.937758 19.7226 0.877901 19.9617C0.778139 20.3003 0.678378 20.6589 0.598568 21.0175C0.299284 22.2526 0.119713 23.5474 0.0399046 24.8422C0 25.3402 0 25.8383 0 26.3362C0 26.9338 0.0199523 27.5116 0.0598568 28.0893C0.0798091 28.2686 0.0798091 28.4678 0.0997614 28.647C0.139667 29.0853 0.199523 29.5036 0.25938 29.9219C0.25938 29.9817 0.279332 30.0414 0.279332 30.1012C0.359141 30.5993 0.458903 31.0972 0.578616 31.5953C0.598568 31.7149 0.638474 31.8343 0.658426 31.9538C0.678378 32.0734 0.718283 32.1929 0.758187 32.3125C0.857948 32.7109 0.977662 33.1292 1.11733 33.5276C1.19713 33.7667 1.27695 34.0056 1.35676 34.2447C2.79332 38.2288 5.30731 41.695 8.51962 44.3245C8.85882 44.6034 9.21796 44.8822 9.5771 45.1412C10.2555 44.962 10.5548 44.3644 10.6745 43.6074C10.5149 43.4878 10.3353 43.3684 10.1757 43.2288C7.06311 40.8185 4.60898 37.5516 3.19236 33.8064C3.31208 33.7069 3.43179 33.5874 3.5515 33.4877C3.63131 33.408 3.73108 33.3284 3.81089 33.2487C3.95056 33.1292 4.11018 33.1491 4.17003 33.1691C4.22989 33.1889 4.36955 33.2487 4.40946 33.4479C4.46932 33.7069 4.50922 33.9659 4.56908 34.2247C4.7686 35.1611 5.50683 35.7587 6.46455 35.7587C6.80373 35.7587 7.14292 35.7587 7.48211 35.7587C8.37996 35.7387 9.13815 35.1212 9.29777 34.2247C9.35763 33.926 9.41748 33.667 9.47734 33.4279C9.51724 33.2487 9.65691 33.1889 9.71677 33.1691C9.77662 33.1491 9.91629 33.1292 10.056 33.2487C10.2555 33.408 10.4749 33.6072 10.6745 33.8064C11.313 34.4041 12.2707 34.4837 12.989 33.9858C13.3082 33.7667 13.6074 33.5475 13.9068 33.3284C14.5652 32.8303 14.8046 32.1332 14.6051 31.3761C14.5054 31.0375 14.3657 30.7387 14.2259 30.4399L14.1662 30.3004C14.1063 30.1809 14.1262 30.0216 14.206 29.902C14.246 29.8422 14.3457 29.7427 14.5054 29.7427C14.7447 29.7626 15.0041 29.7825 15.2834 29.8224C16.2611 29.9618 17.0592 29.4638 17.3784 28.5475C17.4383 28.3681 17.4982 28.1689 17.558 27.9697C17.5979 27.8303 17.6378 27.6909 17.6977 27.5514C18.0568 26.7944 17.7375 25.9378 16.9993 25.4796ZM3.61136 17.89C4.22989 18.0294 4.90826 17.9099 5.40707 17.5114C5.84602 17.1728 6.12535 16.7146 6.22512 16.1768C6.26502 15.9776 6.30493 15.7784 6.34483 15.5792L6.38474 15.3999C6.38474 15.3601 6.40469 15.3401 6.40469 15.3401C6.40469 15.3401 6.42464 15.3202 6.46455 15.3202C6.80373 15.3202 7.14292 15.3202 7.46216 15.3202C7.52201 15.3202 7.54196 15.3202 7.56192 15.4199C7.62177 15.6787 7.66168 15.9377 7.72153 16.1967C7.94101 17.2127 8.77901 17.9099 9.81653 17.9297C10.3752 17.9297 10.874 17.7505 11.273 17.3919C11.4925 17.1927 11.712 16.9935 11.9315 16.8143C11.9514 16.7943 11.9713 16.7943 11.9713 16.7943C11.9713 16.7943 11.9914 16.7943 12.0113 16.8143C12.2707 16.9935 12.55 17.1927 12.8692 17.4318C12.8891 17.4517 12.9092 17.4716 12.8692 17.5513L12.7894 17.7505C12.6697 18.0095 12.55 18.2685 12.4702 18.5474C12.1111 19.623 12.6697 20.8183 13.7471 21.2167C13.8868 21.2764 14.0264 21.3163 14.1461 21.3362C14.246 21.3561 14.3457 21.3561 14.4255 21.376C14.4654 21.376 14.4853 21.376 14.5253 21.376H14.5851L14.9044 21.3362C15.1039 21.3163 15.3234 21.2963 15.5428 21.2566C15.5827 21.2566 15.6027 21.2566 15.6227 21.2566C15.6625 21.2566 15.6824 21.2566 15.6824 21.2566C15.6824 21.2566 15.7025 21.2764 15.7423 21.376C15.7823 21.4955 15.8222 21.635 15.8621 21.7545C15.9219 21.9338 15.9818 22.1131 16.0417 22.2924C16.0616 22.3521 16.0616 22.3521 16.0017 22.392C15.902 22.4518 15.8022 22.5116 15.7224 22.5513C15.5229 22.6709 15.3034 22.7904 15.0839 22.9299C14.5253 23.3283 14.1861 23.9658 14.1861 24.6828C14.1861 25.3801 14.5253 26.0375 15.0839 26.4359C15.3034 26.5952 15.5229 26.7147 15.7423 26.8343C15.8421 26.8941 15.9418 26.9538 16.0417 27.0136C16.0616 27.0335 16.0616 27.0335 16.0616 27.0534C15.9619 27.3721 15.8621 27.7306 15.7224 28.1291C15.4431 28.1092 15.1638 28.0893 14.8844 28.0494C14.1063 27.9499 13.4278 28.2088 12.949 28.7666C12.3904 29.4041 12.2507 30.161 12.55 30.9578C12.6298 31.1371 12.7097 31.3164 12.7894 31.4956C12.8493 31.6152 12.8891 31.7347 12.949 31.8543C12.969 31.8742 12.969 31.8941 12.969 31.8941C12.969 31.8941 12.949 31.9141 12.9291 31.9339C12.6697 32.1332 12.4103 32.3125 12.131 32.5117C12.0711 32.5514 12.0512 32.5514 12.0512 32.5514C12.0512 32.5514 12.0113 32.5316 11.9514 32.4917L11.8317 32.3921C11.6321 32.2128 11.4326 32.0335 11.2132 31.8543C10.6944 31.4359 10.016 31.2964 9.35763 31.4758C8.6992 31.6351 8.18044 32.0734 7.94101 32.6909C7.84125 32.9499 7.78139 33.2088 7.72153 33.4678C7.70158 33.5675 7.68163 33.667 7.64173 33.7667C7.62177 33.8064 7.62177 33.8463 7.62177 33.9061C7.62177 33.9459 7.60182 33.9858 7.60182 34.0056C7.60182 34.0056 7.60182 34.0255 7.56192 34.0255C7.20278 34.0255 6.86359 34.0255 6.50445 34.0255C6.4845 34.0255 6.44459 34.0056 6.44459 33.9858C6.40469 33.8263 6.38474 33.6869 6.34483 33.5276C6.32488 33.408 6.28498 33.2686 6.26502 33.1491C6.08544 32.3522 5.60659 31.7945 4.84841 31.5355C4.58903 31.4559 4.3496 31.416 4.11018 31.416C3.59141 31.416 3.0926 31.6152 2.67361 31.9937C2.1748 30.2009 1.91542 28.3084 1.91542 26.3562C1.87552 23.3481 2.49404 20.4796 3.61136 17.89Z" fill="#FFAA12"/>
<path d="M58.6676 31.2194C58.3129 30.9539 58.0469 30.4891 58.0469 29.98C58.0469 29.1389 58.7341 28.4749 59.5766 28.4749C59.9978 28.4749 60.3081 28.6298 60.5076 28.7626C61.6383 29.5816 62.8798 30.0907 64.3207 30.0907C65.6509 30.0907 66.4712 29.5594 66.4712 28.6961V28.6519C66.4712 27.8329 65.9613 27.3903 63.4784 26.7706C60.4855 25.9958 58.5346 25.1769 58.5346 22.2331V22.1889C58.5346 19.4885 60.7071 17.6956 63.7443 17.6956C65.5622 17.6956 67.1362 18.1604 68.4664 19.0236C68.8211 19.245 69.198 19.6877 69.198 20.3295C69.198 21.1707 68.5108 21.8347 67.6683 21.8347C67.3579 21.8347 67.0919 21.7461 66.848 21.5911C65.7618 20.9493 64.742 20.5951 63.7222 20.5951C62.4586 20.5951 61.8156 21.1707 61.8156 21.901V21.9453C61.8156 22.9192 62.4586 23.2512 65.0301 23.8931C68.0452 24.69 69.7522 25.7524 69.7522 28.3642V28.4084C69.7522 31.3523 67.491 33.0123 64.2764 33.0123C62.3034 32.9902 60.3303 32.4147 58.6676 31.2194Z" fill="#222656"/>
<path d="M81.5461 20.9262H78.398C77.5779 20.9262 76.8906 20.2401 76.8906 19.4211C76.8906 18.6022 77.5779 17.916 78.398 17.916H87.9752C88.7954 17.916 89.4827 18.6022 89.4827 19.4211C89.4827 20.2401 88.7954 20.9262 87.9752 20.9262H84.8271V31.2849C84.8271 32.1924 84.0956 32.9228 83.1866 32.9228C82.2777 32.9228 81.5461 32.1924 81.5461 31.2849V20.9262Z" fill="#222656"/>
<path d="M97.6855 31.1522V19.554C97.6855 18.6465 98.4171 17.916 99.326 17.916H107.595C108.393 17.916 109.058 18.58 109.058 19.3769C109.058 20.1737 108.393 20.8156 107.595 20.8156H100.944V23.8258H106.62C107.418 23.8258 108.083 24.4898 108.083 25.2866C108.083 26.0834 107.418 26.7253 106.62 26.7253H100.944V29.8462H107.684C108.482 29.8462 109.147 30.5102 109.147 31.307C109.147 32.1039 108.482 32.7458 107.684 32.7458H99.326C98.4171 32.79 97.6855 32.0597 97.6855 31.1522Z" fill="#222656"/>
<path d="M117.749 19.465C117.749 18.5575 118.479 17.8271 119.389 17.8271H119.744C120.453 17.8271 120.94 18.1812 121.229 18.6682L125.197 25.1092L129.187 18.646C129.52 18.0927 129.985 17.8271 130.651 17.8271H131.005C131.914 17.8271 132.646 18.5575 132.646 19.465V31.2845C132.646 32.192 131.914 32.9225 131.005 32.9225C130.118 32.9225 129.386 32.1699 129.386 31.2845V23.8697L126.504 28.2965C126.172 28.8056 125.729 29.1155 125.152 29.1155C124.576 29.1155 124.133 28.8056 123.8 28.2965L120.963 23.9361V31.3289C120.963 32.2142 120.231 32.9225 119.344 32.9225C118.458 32.9225 117.749 32.2142 117.749 31.3289V19.465Z" fill="#222656"/>
<path d="M141.38 25.3973V25.3531C141.38 21.1255 144.573 17.6505 149.139 17.6505C151.378 17.6505 152.886 18.2481 154.128 19.1556C154.46 19.4212 154.77 19.886 154.77 20.4615C154.77 21.3469 154.039 22.0552 153.152 22.0552C152.709 22.0552 152.398 21.878 152.177 21.7453C151.268 21.0591 150.292 20.6828 149.139 20.6828C146.634 20.6828 144.817 22.7635 144.817 25.3088V25.3531C144.817 27.8985 146.59 30.0234 149.139 30.0234C150.514 30.0234 151.445 29.6028 152.376 28.8503C152.643 28.6289 152.975 28.4961 153.352 28.4961C154.172 28.4961 154.881 29.1822 154.881 30.0012C154.881 30.5103 154.615 30.9087 154.327 31.1743C152.997 32.3474 151.401 33.0557 149.029 33.0557C144.639 33.0336 141.38 29.6693 141.38 25.3973Z" fill="#00BB8D"/>
<path d="M162.731 30.6874L167.917 18.9785C168.272 18.1817 168.937 17.6726 169.825 17.6726H170.024C170.911 17.6726 171.554 18.1595 171.908 18.9785L177.095 30.6874C177.207 30.9308 177.273 31.13 177.273 31.3514C177.273 32.2145 176.586 32.9228 175.722 32.9228C174.945 32.9228 174.436 32.4802 174.148 31.7941L173.149 29.4478H166.588L165.545 31.8826C165.28 32.5244 164.726 32.9008 164.038 32.9008C163.196 32.9008 162.53 32.2145 162.53 31.3735C162.553 31.1522 162.619 30.9086 162.731 30.6874ZM171.952 26.5704L169.891 21.6567L167.83 26.5704H171.952Z" fill="#00BB8D"/>
<path d="M185.675 19.554C185.675 18.6465 186.407 17.916 187.316 17.916H195.651C196.472 17.916 197.136 18.5801 197.136 19.399C197.136 20.2179 196.472 20.8819 195.651 20.8819H188.956V24.0472H194.698C195.518 24.0472 196.184 24.7111 196.184 25.5301C196.184 26.3491 195.518 27.0131 194.698 27.0131H188.956V31.2849C188.956 32.1924 188.224 32.9228 187.316 32.9228C186.407 32.9228 185.675 32.1924 185.675 31.2849V19.554Z" fill="#00BB8D"/>
<path d="M205.45 31.1522V19.554C205.45 18.6465 206.182 17.916 207.091 17.916H215.36C216.158 17.916 216.822 18.58 216.822 19.3769C216.822 20.1737 216.158 20.8156 215.36 20.8156H208.709V23.8258H214.384C215.182 23.8258 215.847 24.4898 215.847 25.2866C215.847 26.0834 215.182 26.7253 214.384 26.7253H208.709V29.8462H215.449C216.246 29.8462 216.911 30.5102 216.911 31.307C216.911 32.1039 216.246 32.7458 215.449 32.7458H207.091C206.182 32.79 205.45 32.0597 205.45 31.1522Z" fill="#00BB8D"/>
<path d="M187.189 41.3977C186.591 41.3977 186.137 41.692 185.898 42.1216V39.6875H185.045V45.4545H185.794L185.834 44.7148C186.057 45.2 186.551 45.5341 187.189 45.5341C188.272 45.5341 188.949 44.7705 188.949 43.4739C188.949 42.1693 188.272 41.3977 187.189 41.3977ZM186.997 44.85C186.328 44.85 185.898 44.3489 185.898 43.5136V43.4182C185.898 42.5909 186.328 42.0898 186.997 42.0898C187.683 42.0898 188.097 42.5989 188.097 43.4659C188.097 44.333 187.683 44.85 186.997 44.85ZM193.501 41.4773H192.617L191.788 43.9034L191.517 44.7227L191.286 43.975L190.41 41.4773H189.454L190.696 44.492L191.111 45.4784L190.935 45.908C190.76 46.3693 190.537 46.4807 190.242 46.4807C189.995 46.4807 189.772 46.4171 189.589 46.1943L189.342 46.8466C189.581 47.0693 189.868 47.1648 190.282 47.1648C190.999 47.1648 191.406 46.8466 191.756 45.9239L193.501 41.4773ZM200.095 45.4545H201.075L199.649 43.2591C200.35 43.0602 200.765 42.5352 200.765 41.7795C200.765 40.7932 200.056 40.2045 198.924 40.2045H196.781V45.4545H197.626V43.3545H198.757L200.095 45.4545ZM197.626 40.9284H198.853C199.546 40.9284 199.88 41.2068 199.88 41.7875C199.88 42.3682 199.546 42.6466 198.853 42.6466H197.626V40.9284ZM206.343 40.2045H205.443L204.216 43.7045L203.897 44.7386L203.578 43.6966L202.351 40.2045H201.443L203.395 45.4545H204.391L206.343 40.2045ZM210.614 45.4545H211.594L210.168 43.2591C210.869 43.0602 211.284 42.5352 211.284 41.7795C211.284 40.7932 210.575 40.2045 209.443 40.2045H207.3V45.4545H208.145V43.3545H209.276L210.614 45.4545ZM208.145 40.9284H209.372C210.065 40.9284 210.399 41.2068 210.399 41.7875C210.399 42.3682 210.065 42.6466 209.372 42.6466H208.145V40.9284ZM212.653 45.4545H214.756C216.007 45.4545 216.684 44.8977 216.684 43.9989C216.684 43.4102 216.286 42.9091 215.609 42.7977V42.7898C216.222 42.6784 216.549 42.1932 216.549 41.6443C216.549 40.7455 215.983 40.2045 214.724 40.2045H212.653V45.4545ZM213.49 42.4636V40.9205H214.661C215.33 40.9205 215.665 41.175 215.665 41.692C215.665 42.2091 215.33 42.4636 214.661 42.4636H213.49ZM213.49 44.7466V43.1716H214.796C215.465 43.1716 215.8 43.458 215.8 43.9591C215.8 44.4602 215.465 44.7466 214.796 44.7466H213.49Z" fill="#B3B3B3"/>
</g>
<defs>
<clipPath id="clip0">
<rect width="217.391" height="50" fill="white"/>
</clipPath>
</defs>
</svg>
