<svg width="77" height="35" viewBox="0 0 77 35" fill="none" xmlns="http://www.w3.org/2000/svg">
<path d="M1.57715 27H15.7671V23.91H5.65715C6.01715 22.05 6.64715 21.3 8.89715 20.01L11.8371 18.33C14.3571 16.89 15.8271 14.58 15.8271 12.09C15.8271 8.49 13.2771 6.24 9.16715 6.24C4.81715 6.24 2.02715 9.09 2.02715 13.53H5.59715C5.59715 10.77 6.88715 9.24 9.16715 9.24C10.9371 9.24 12.1671 10.47 12.1671 12.27C12.1671 13.92 11.2971 15.21 9.61715 16.14L6.61715 17.79C3.07715 19.74 1.57715 22.5 1.57715 27ZM26.4795 20.52H35.7495V17.61H26.4795V20.52ZM53.3349 12.66H53.2749L58.0149 6.6H53.9049L47.4849 15.27C46.4949 16.56 45.9549 18.21 45.9549 20.01C45.9549 24.12 48.7149 27.36 53.3349 27.36C57.9549 27.36 60.7149 24.12 60.7149 20.01C60.7149 15.9 57.9549 12.66 53.3349 12.66ZM53.3349 24.45C50.6949 24.45 49.2249 22.56 49.2249 20.01C49.2249 17.46 50.6949 15.57 53.3349 15.57C55.9749 15.57 57.4449 17.46 57.4449 20.01C57.4449 22.56 55.9749 24.45 53.3349 24.45Z" fill="#00CFF5"/>
<path d="M21.7309 5.22C21.0709 5.22 20.4509 5.52 20.1709 5.97V5.34H19.0809V12.1H20.1709V9.37C20.4509 9.82 21.0409 10.12 21.6609 10.12C23.0109 10.12 23.9509 9.11 23.9509 7.67C23.9509 6.2 23.0609 5.22 21.7309 5.22ZM21.5009 9.15C20.6809 9.15 20.1209 8.55 20.1209 7.67C20.1209 6.79 20.6809 6.19 21.5009 6.19C22.3009 6.19 22.8609 6.8 22.8609 7.67C22.8609 8.54 22.3009 9.15 21.5009 9.15ZM24.9988 10H26.0888V7.53C26.0888 6.42 26.5388 6.15 27.0888 6.15C27.6588 6.15 27.9388 6.48 27.9388 7.25V10H29.0288V7.53C29.0288 6.42 29.4588 6.15 30.0088 6.15C30.5788 6.15 30.8788 6.49 30.8788 7.26V10H31.9688V7.05C31.9688 6.18 31.6888 5.22 30.2888 5.22C29.6288 5.22 29.0788 5.58 28.8588 6.05C28.6588 5.59 28.2388 5.22 27.3888 5.22C26.7788 5.22 26.2888 5.56 26.0888 5.99V5.34H24.9988V10Z" fill="#00CFF5"/>
<path d="M65.7309 5.22C65.0709 5.22 64.4509 5.52 64.1709 5.97V5.34H63.0809V12.1H64.1709V9.37C64.4509 9.82 65.0409 10.12 65.6609 10.12C67.0109 10.12 67.9509 9.11 67.9509 7.67C67.9509 6.2 67.0609 5.22 65.7309 5.22ZM65.5009 9.15C64.6809 9.15 64.1209 8.55 64.1209 7.67C64.1209 6.79 64.6809 6.19 65.5009 6.19C66.3009 6.19 66.8609 6.8 66.8609 7.67C66.8609 8.54 66.3009 9.15 65.5009 9.15ZM68.9988 10H70.0888V7.53C70.0888 6.42 70.5388 6.15 71.0888 6.15C71.6588 6.15 71.9388 6.48 71.9388 7.25V10H73.0288V7.53C73.0288 6.42 73.4588 6.15 74.0088 6.15C74.5788 6.15 74.8788 6.49 74.8788 7.26V10H75.9688V7.05C75.9688 6.18 75.6888 5.22 74.2888 5.22C73.6288 5.22 73.0788 5.58 72.8588 6.05C72.6588 5.59 72.2388 5.22 71.3888 5.22C70.7788 5.22 70.2888 5.56 70.0888 5.99V5.34H68.9988V10Z" fill="#00CFF5"/>
</svg>
