<?xml version="1.0" encoding="utf-8"?>
<!-- Generator: Adobe Illustrator 22.1.0, SVG Export Plug-In . SVG Version: 6.00 Build 0)  -->
<svg version="1.1" id="Layer_1" xmlns="http://www.w3.org/2000/svg" xmlns:xlink="http://www.w3.org/1999/xlink" x="0px" y="0px"
	 viewBox="0 0 71.6 17.8" style="enable-background:new 0 0 71.6 17.8;" xml:space="preserve">
<style type="text/css">
	.st0{fill:#00CFF5;}
</style>
<title>Artboard 1 copy</title>
<path class="st0" d="M-0.3,4.3c0.6,0,1.1,0,1.7-0.1c0.4-0.1,0.7-0.2,1-0.4c0.2-0.2,0.4-0.5,0.5-0.8C3,2.5,3,2.1,3,1.7h1.9v15.5H2.8
	V5.9h-3.1V4.3z"/>
<path class="st0" d="M13.9,12.2H8.2V1.7h2v8.7h3.8V5.6h2v4.8h2.3v1.8h-2.3v5h-2L13.9,12.2z"/>
<g>
	<path class="st0" d="M18.9,0.8h0.7v2.5c0.1-0.2,0.3-0.4,0.5-0.5c0.2-0.1,0.5-0.2,0.8-0.2c0.2,0,0.4,0,0.6,0.1
		c0.2,0.1,0.3,0.2,0.4,0.3C21.9,3.2,22,3.3,22,3.5c0,0.2,0.1,0.4,0.1,0.6v2h-0.7V4.3c0-0.1,0-0.3,0-0.4c0-0.1-0.1-0.2-0.2-0.4
		c-0.1-0.1-0.2-0.2-0.3-0.2c-0.3-0.1-0.6-0.1-0.8,0c-0.1,0.1-0.2,0.2-0.3,0.3c-0.1,0.1-0.1,0.2-0.2,0.4c0,0.1-0.1,0.3-0.1,0.4v1.8
		h-0.7V0.8z"/>
	<path class="st0" d="M25.3,3.3h-0.2H25c-0.3,0-0.7,0.1-0.9,0.4c-0.2,0.3-0.3,0.6-0.3,1v1.5h-0.7V2.7h0.7v0.7
		C24,3.1,24.1,3,24.3,2.8c0.2-0.1,0.4-0.2,0.7-0.2c0.1,0,0.2,0,0.3,0.1L25.3,3.3z"/>
	<path class="st0" d="M27.4,4.2c0.1,0,0.3,0.1,0.4,0.1c0.1,0,0.2,0.1,0.3,0.2c0.1,0.1,0.2,0.2,0.2,0.3c0.1,0.1,0.1,0.3,0.1,0.4
		c0,0.2,0,0.3-0.1,0.5C28.2,5.8,28.1,5.9,28,6c-0.1,0.1-0.3,0.2-0.4,0.2c-0.2,0-0.4,0.1-0.5,0.1c-0.2,0-0.4,0-0.5-0.1
		c-0.2,0-0.3-0.1-0.4-0.2c-0.1-0.1-0.2-0.2-0.3-0.4c-0.1-0.2-0.1-0.4-0.1-0.5h0.6c0,0.2,0.1,0.4,0.2,0.6c0.2,0.1,0.4,0.2,0.6,0.2
		c0.2,0,0.4,0,0.5-0.1c0.1-0.1,0.2-0.2,0.2-0.4c0-0.1,0-0.2-0.1-0.2c-0.1-0.1-0.1-0.1-0.2-0.2c-0.1-0.1-0.2-0.1-0.3-0.1
		c-0.1,0-0.3-0.1-0.5-0.1c-0.2-0.1-0.3-0.1-0.4-0.1c-0.1,0-0.2-0.1-0.3-0.2c-0.1-0.1-0.2-0.2-0.2-0.3c-0.1-0.1-0.1-0.3-0.1-0.4
		c0-0.1,0-0.3,0.1-0.4c0.1-0.1,0.2-0.2,0.3-0.3c0.1-0.1,0.3-0.2,0.4-0.2c0.2,0,0.3-0.1,0.5-0.1c0.2,0,0.4,0,0.5,0.1
		c0.2,0.1,0.3,0.1,0.4,0.2c0.1,0.1,0.2,0.2,0.3,0.4c0.1,0.1,0.1,0.3,0.1,0.5h-0.6c0-0.2-0.1-0.3-0.2-0.5c-0.1-0.1-0.3-0.2-0.5-0.2
		c-0.2,0-0.3,0-0.5,0.1c-0.1,0.1-0.2,0.2-0.2,0.4c0,0.1,0,0.2,0.1,0.2c0.1,0.1,0.1,0.1,0.2,0.1c0.1,0,0.2,0.1,0.3,0.1L27.4,4.2z"/>
</g>
<g>
	<path class="st0" d="M60.9,0.8h0.7v2.5c0.1-0.2,0.3-0.4,0.5-0.5c0.2-0.1,0.5-0.2,0.8-0.2c0.2,0,0.4,0,0.6,0.1
		c0.2,0.1,0.3,0.2,0.4,0.3C63.9,3.2,64,3.3,64,3.5c0,0.2,0.1,0.4,0.1,0.6v2h-0.7V4.3c0-0.1,0-0.3,0-0.4c0-0.1-0.1-0.2-0.2-0.4
		c-0.1-0.1-0.2-0.2-0.3-0.2c-0.3-0.1-0.6-0.1-0.8,0c-0.1,0.1-0.2,0.2-0.3,0.3c-0.1,0.1-0.1,0.2-0.2,0.4c0,0.1-0.1,0.3-0.1,0.4v1.8
		h-0.7V0.8z"/>
	<path class="st0" d="M67.3,3.3h-0.2H67c-0.3,0-0.7,0.1-0.9,0.4c-0.2,0.3-0.3,0.6-0.3,1v1.5h-0.7V2.7h0.7v0.7
		C66,3.1,66.1,3,66.3,2.8c0.2-0.1,0.4-0.2,0.7-0.2c0.1,0,0.2,0,0.3,0.1V3.3z"/>
	<path class="st0" d="M69.4,4.2c0.1,0,0.3,0.1,0.4,0.1c0.1,0,0.2,0.1,0.3,0.2c0.1,0.1,0.2,0.2,0.2,0.3c0.1,0.1,0.1,0.3,0.1,0.4
		c0,0.2,0,0.3-0.1,0.5C70.2,5.8,70.1,5.9,70,6c-0.1,0.1-0.3,0.2-0.4,0.2c-0.2,0-0.4,0.1-0.5,0.1c-0.2,0-0.4,0-0.5-0.1
		c-0.2,0-0.3-0.1-0.4-0.2c-0.1-0.1-0.2-0.2-0.3-0.4c-0.1-0.2-0.1-0.4-0.1-0.5h0.6c0,0.2,0.1,0.4,0.2,0.6c0.2,0.1,0.4,0.2,0.6,0.2
		c0.2,0,0.4,0,0.5-0.1c0.1-0.1,0.2-0.2,0.2-0.4c0-0.1,0-0.2-0.1-0.2c-0.1-0.1-0.1-0.1-0.2-0.2c-0.1-0.1-0.2-0.1-0.3-0.1
		c-0.1,0-0.3-0.1-0.5-0.1c-0.2-0.1-0.3-0.1-0.4-0.1c-0.1,0-0.2-0.1-0.3-0.2c-0.1-0.1-0.2-0.2-0.2-0.3c-0.1-0.1-0.1-0.3-0.1-0.4
		c0-0.1,0-0.3,0.1-0.4c0.1-0.1,0.2-0.2,0.3-0.3c0.1-0.1,0.3-0.2,0.4-0.2c0.2,0,0.3-0.1,0.5-0.1c0.2,0,0.4,0,0.5,0.1
		c0.2,0.1,0.3,0.1,0.4,0.2c0.1,0.1,0.2,0.2,0.3,0.4c0.1,0.1,0.1,0.3,0.1,0.5h-0.6c0-0.2-0.1-0.3-0.2-0.5c-0.1-0.1-0.3-0.2-0.5-0.2
		c-0.2,0-0.3,0-0.5,0.1c-0.1,0.1-0.2,0.2-0.2,0.4c0,0.1,0,0.2,0.1,0.2c0.1,0.1,0.1,0.1,0.2,0.1c0.1,0,0.2,0.1,0.3,0.1L69.4,4.2z"/>
</g>
<path class="st0" d="M33.1,11.8h-5.2V10h5.2L33.1,11.8z"/>
<path class="st0" d="M40,4.3c0.6,0,1.1,0,1.7-0.1c0.4-0.1,0.7-0.2,1-0.4c0.2-0.2,0.4-0.5,0.5-0.8c0.1-0.4,0.1-0.8,0.1-1.2h1.9v15.5
	h-2V5.9H40V4.3z"/>
<path class="st0" d="M53.4,17.5c-0.7,0-1.5-0.1-2.2-0.4c-0.6-0.2-1.2-0.6-1.6-1c-0.4-0.4-0.8-0.9-1-1.5c-0.2-0.6-0.4-1.2-0.4-1.8
	c0-0.4,0.1-0.8,0.2-1.2c0.1-0.4,0.3-0.8,0.5-1.1c0.2-0.3,0.5-0.6,0.8-0.9c0.3-0.3,0.7-0.5,1.2-0.6c-0.4-0.1-0.7-0.3-1-0.6
	c-0.3-0.2-0.5-0.5-0.7-0.8c-0.2-0.3-0.3-0.6-0.4-0.9c-0.1-0.3-0.1-0.7-0.1-1c0-0.6,0.1-1.1,0.3-1.7c0.2-0.5,0.6-1,1-1.4
	c0.4-0.4,1-0.7,1.5-0.9c0.6-0.2,1.3-0.3,2-0.3c0.7,0,1.4,0.1,2,0.3C56,2,56.6,2.3,57,2.7c0.4,0.4,0.8,0.8,1,1.4
	c0.2,0.5,0.3,1.1,0.3,1.7c0,0.3,0,0.7-0.1,1c-0.1,0.3-0.2,0.7-0.4,0.9c-0.2,0.3-0.4,0.6-0.7,0.8c-0.3,0.2-0.6,0.4-1,0.6
	c0.4,0.1,0.8,0.3,1.1,0.6c0.3,0.3,0.6,0.6,0.8,0.9c0.2,0.3,0.4,0.7,0.5,1.1c0.1,0.4,0.1,0.8,0.2,1.2c0,0.6-0.1,1.2-0.3,1.8
	c-0.2,0.6-0.6,1.1-1,1.5c-0.5,0.4-1,0.8-1.6,1C55,17.3,54.2,17.5,53.4,17.5z M53.4,15.6c0.5,0,0.9-0.1,1.3-0.2
	c0.4-0.1,0.7-0.3,1-0.6c0.3-0.2,0.5-0.5,0.6-0.9c0.1-0.3,0.2-0.7,0.2-1.1c0-0.4-0.1-0.7-0.2-1.1c-0.1-0.3-0.4-0.6-0.6-0.9
	c-0.3-0.3-0.6-0.5-1-0.6c-0.9-0.3-1.8-0.3-2.7,0c-0.4,0.1-0.7,0.3-1,0.6c-0.3,0.2-0.5,0.5-0.6,0.9c-0.1,0.3-0.2,0.7-0.2,1.1
	c0,0.4,0.1,0.8,0.2,1.1c0.1,0.3,0.4,0.6,0.6,0.9c0.3,0.3,0.6,0.5,1,0.6C52.5,15.6,53,15.7,53.4,15.6z M53.4,8.4
	c0.8,0.1,1.5-0.2,2.1-0.8c0.5-0.5,0.8-1.1,0.7-1.8c0-0.7-0.3-1.4-0.8-1.9c-0.6-0.5-1.3-0.8-2.1-0.8c-0.4,0-0.8,0.1-1.2,0.2
	c-0.3,0.1-0.6,0.3-0.9,0.6c-0.2,0.2-0.4,0.5-0.6,0.8c-0.1,0.3-0.2,0.7-0.2,1c0,0.7,0.3,1.4,0.8,1.8C51.9,8.2,52.7,8.5,53.4,8.4z"/>
</svg>
